<?xml version="1.0" encoding="UTF-8" standalone="no"?>
<!-- Created with Inkscape (http://www.inkscape.org/) -->
<svg
   xmlns:dc="http://purl.org/dc/elements/1.1/"
   xmlns:cc="http://creativecommons.org/ns#"
   xmlns:rdf="http://www.w3.org/1999/02/22-rdf-syntax-ns#"
   xmlns:svg="http://www.w3.org/2000/svg"
   xmlns="http://www.w3.org/2000/svg"
   xmlns:sodipodi="http://sodipodi.sourceforge.net/DTD/sodipodi-0.dtd"
   xmlns:inkscape="http://www.inkscape.org/namespaces/inkscape"
   width="16px"
   height="16px"
   id="svg3487"
   sodipodi:version="0.32"
   inkscape:version="0.46"
   sodipodi:docname="1.svg"
   inkscape:output_extension="org.inkscape.output.svg.inkscape">
  <metadata
     id="metadata34">
    <rdf:RDF>
      <cc:Work
         rdf:about="">
        <dc:format>image/svg+xml</dc:format>
        <dc:type
           rdf:resource="http://purl.org/dc/dcmitype/StillImage" />
      </cc:Work>
    </rdf:RDF>
  </metadata>
  <defs
     id="defs3489" />
  <sodipodi:namedview
     id="base"
     pagecolor="#ffffff"
     bordercolor="#666666"
     borderopacity="1.0"
     inkscape:pageopacity="0.0"
     inkscape:pageshadow="2"
     inkscape:zoom="15.696216"
     inkscape:cx="5.7566765"
     inkscape:cy="-12.193042"
     inkscape:current-layer="layer1"
     showgrid="true"
     inkscape:grid-bbox="true"
     inkscape:document-units="px"
     inkscape:window-width="1592"
     inkscape:window-height="1123"
     inkscape:window-x="0"
     inkscape:window-y="24" />
  <g
     id="layer1"
     inkscape:label="Layer 1"
     inkscape:groupmode="layer">
    <text
       xml:space="preserve"
       style="font-size:10px;font-style:normal;font-weight:normal;fill:#000000;fill-opacity:1;stroke:none;stroke-width:1px;stroke-linecap:butt;stroke-linejoin:miter;stroke-opacity:1;font-family:Bitstream Vera Sans"
       x="4.2048349"
       y="7.7177491"
       id="text2407"><tspan
         sodipodi:role="line"
         id="tspan2409"
         x="4.2048349"
         y="7.7177491" /></text>
    <path
       style="font-size:24px;font-style:normal;font-variant:normal;font-weight:bold;font-stretch:normal;text-align:start;line-height:125%;writing-mode:lr-tb;text-anchor:start;fill:#000000;fill-opacity:1;stroke:none;stroke-width:1px;stroke-linecap:butt;stroke-linejoin:miter;stroke-opacity:1;font-family:Linux Libertine;-inkscape-font-specification:Linux Libertine Bold"
       d="M 4.8769531,13.941405 C 4.8769479,14.183594 4.9238229,14.355469 5.0175781,14.45703 C 5.1113227,14.558594 5.306635,14.632813 5.6035156,14.679687 C 5.9081969,14.726563 6.3964776,14.75 7.0683594,14.749999 C 7.7324138,14.75 8.3378819,14.699219 8.8847656,14.597655 C 9.4316308,14.496094 9.9628803,14.3125 10.478516,14.046874 C 11.001942,13.781251 11.439441,13.433595 11.791016,13.003905 C 12.142566,12.574221 12.423815,12.015628 12.634766,11.328124 C 12.853502,10.632817 12.962877,9.8320362 12.962891,8.9257803 C 12.962877,8.1757879 12.892565,7.4492261 12.751953,6.7460928 C 12.611315,6.035165 12.37694,5.3437595 12.048828,4.671874 C 11.728504,4.0000108 11.32616,3.4140739 10.841797,2.9140615 C 10.357411,2.4140749 9.7402243,2.0117315 8.9902344,1.7070303 C 8.2402258,1.4023572 7.4042891,1.2500136 6.4824219,1.249999 C 5.9355406,1.2500136 5.529291,1.3007948 5.2636719,1.4023428 C 5.005854,1.5039196 4.8769479,1.7226693 4.8769531,2.0585928 L 4.8769531,13.941405 M 0.048828125,15.195312 C 0.048827727,14.976562 0.24414003,14.867187 0.63476562,14.867187 L 1.3378906,14.867187 C 1.6347636,14.867187 1.8457009,14.792969 1.9707031,14.64453 C 2.0957007,14.488282 2.1582006,14.238282 2.1582031,13.89453 L 2.1582031,2.1054678 C 2.1582006,1.7226693 2.1035132,1.4648571 1.9941406,1.3320303 C 1.8847634,1.1992324 1.6660136,1.1328262 1.3378906,1.1328115 L 0.66992188,1.1328115 C 0.25585877,1.1328262 0.048827727,1.0273575 0.048828125,0.8164053 L 0.048828125,0.21874905 L 3.4707031,0.26562405 C 3.5253868,0.26563954 3.6074179,0.26563954 3.7167969,0.26562405 C 3.8261677,0.25782705 3.9081989,0.2539208 3.9628906,0.2539053 C 5.275385,0.23048332 6.4081964,0.21876459 7.3613281,0.21874905 C 8.5331942,0.21876459 9.6503806,0.43751437 10.712891,0.87499905 C 11.783191,1.304701 12.697253,1.8828254 13.455078,2.609374 C 14.220689,3.335949 14.826157,4.2031356 15.271484,5.2109365 C 15.724593,6.2109461 15.951156,7.25782 15.951172,8.3515615 C 15.951156,9.1718806 15.861312,9.9296924 15.681641,10.624999 C 15.501937,11.312503 15.255844,11.906253 14.943359,12.406249 C 14.638657,12.906252 14.27147,13.35547 13.841797,13.753905 C 13.412096,14.144532 12.958971,14.464844 12.482422,14.714843 C 12.005847,14.964844 11.490223,15.171875 10.935547,15.335937 C 10.388661,15.499999 9.8574117,15.617187 9.3417969,15.687499 C 8.8339752,15.749999 8.3144445,15.781249 7.7832031,15.781249 C 7.0878832,15.781249 6.0136655,15.76953 4.5605469,15.746093 C 4.2792922,15.73828 3.9160114,15.734374 3.4707031,15.734374 C 3.1425746,15.734374 2.5761689,15.742187 1.7714844,15.757812 C 0.96679556,15.765624 0.39257738,15.773437 0.048828125,15.781249 L 0.048828125,15.195312"
       id="text2411" />
  </g>
</svg>
