<?xml version="1.0" encoding="UTF-8" standalone="no"?>
<!-- Created with Inkscape (http://www.inkscape.org/) -->
<svg
   xmlns:dc="http://purl.org/dc/elements/1.1/"
   xmlns:cc="http://creativecommons.org/ns#"
   xmlns:rdf="http://www.w3.org/1999/02/22-rdf-syntax-ns#"
   xmlns:svg="http://www.w3.org/2000/svg"
   xmlns="http://www.w3.org/2000/svg"
   xmlns:sodipodi="http://sodipodi.sourceforge.net/DTD/sodipodi-0.dtd"
   xmlns:inkscape="http://www.inkscape.org/namespaces/inkscape"
   width="16px"
   height="16px"
   id="svg3487"
   sodipodi:version="0.32"
   inkscape:version="0.46"
   sodipodi:docname="10.svg"
   inkscape:output_extension="org.inkscape.output.svg.inkscape">
  <metadata
     id="metadata34">
    <rdf:RDF>
      <cc:Work
         rdf:about="">
        <dc:format>image/svg+xml</dc:format>
        <dc:type
           rdf:resource="http://purl.org/dc/dcmitype/StillImage" />
      </cc:Work>
    </rdf:RDF>
  </metadata>
  <defs
     id="defs3489">
    <inkscape:perspective
       sodipodi:type="inkscape:persp3d"
       inkscape:vp_x="0 : 8 : 1"
       inkscape:vp_y="0 : 1000 : 0"
       inkscape:vp_z="16 : 8 : 1"
       inkscape:persp3d-origin="8 : 5.3333333 : 1"
       id="perspective3253" />
  </defs>
  <sodipodi:namedview
     id="base"
     pagecolor="#ffffff"
     bordercolor="#666666"
     borderopacity="1.0"
     inkscape:pageopacity="0.0"
     inkscape:pageshadow="2"
     inkscape:zoom="15.696216"
     inkscape:cx="-2.5255745"
     inkscape:cy="-4.9086313"
     inkscape:current-layer="layer1"
     showgrid="true"
     inkscape:grid-bbox="true"
     inkscape:document-units="px"
     inkscape:window-width="1592"
     inkscape:window-height="1123"
     inkscape:window-x="0"
     inkscape:window-y="24"
     showguides="true"
     inkscape:guide-bbox="true">
    <sodipodi:guide
       orientation="0,1"
       position="-8.282251,1.0830636"
       id="guide3255" />
  </sodipodi:namedview>
  <g
     id="layer1"
     inkscape:label="Layer 1"
     inkscape:groupmode="layer">
    <text
       xml:space="preserve"
       style="font-size:10px;font-style:normal;font-weight:normal;fill:#000000;fill-opacity:1;stroke:none;stroke-width:1px;stroke-linecap:butt;stroke-linejoin:miter;stroke-opacity:1;font-family:Bitstream Vera Sans"
       x="4.2048349"
       y="7.7177491"
       id="text2407"><tspan
         sodipodi:role="line"
         id="tspan2409"
         x="4.2048349"
         y="7.7177491" /></text>
    <path
       style="font-size:24px;font-style:normal;font-variant:normal;font-weight:bold;font-stretch:normal;text-align:start;line-height:100%;writing-mode:lr-tb;text-anchor:start;fill:#000000;fill-opacity:1;stroke:none;stroke-width:1px;stroke-linecap:butt;stroke-linejoin:miter;stroke-opacity:1;font-family:Linux Libertine;-inkscape-font-specification:Linux Libertine Bold"
       d="M 2.1312871,3.5878906 C 1.8109702,3.587902 1.0609709,3.8769642 -0.11871285,4.4550781 L -0.52886905,3.4707031 C 0.48675276,3.0097776 1.2797207,2.6152467 1.8500372,2.2871094 C 2.4203445,1.9589974 3.0414377,1.556654 3.7133184,1.0800781 L 4.7680059,1.0800781 L 4.7680059,13.056641 C 4.7679984,13.447267 4.7992485,13.708986 4.8617559,13.841797 C 4.9242483,13.97461 5.060967,14.041017 5.2719122,14.041016 L 6.502381,14.041016 C 6.9008088,14.041017 7.1000274,14.146485 7.1000372,14.357422 L 7.1000372,14.978516 L 3.4555059,14.931641 C 3.0883126,14.931641 2.4711257,14.939453 1.6039434,14.955078 C 0.74456501,14.970703 0.13128437,14.978516 -0.23590035,14.978516 L -0.23590035,14.333984 C -0.19684035,14.138673 -0.00152795,14.041017 0.35003717,14.041016 L 1.7680059,14.041016 C 1.9945638,14.041017 2.1312823,13.970704 2.1781621,13.830078 C 2.2328447,13.689454 2.2601884,13.431642 2.2601934,13.056641 L 2.2601934,4.8417969 C 2.2601884,4.0058703 2.2172197,3.587902 2.1312871,3.5878906 M 11.876525,2.1113281 C 11.72027,2.111341 11.567926,2.1464972 11.419494,2.2167969 C 11.278864,2.2793096 11.122614,2.3925907 10.950744,2.5566406 C 10.786677,2.7129029 10.634334,2.9472776 10.493713,3.2597656 C 10.360896,3.572277 10.235896,3.9550891 10.118713,4.4082031 C 10.009334,4.8535257 9.9233974,5.4238377 9.8609004,6.1191406 C 9.7983974,6.8144613 9.7671474,7.5996167 9.7671504,8.4746094 C 9.7671474,8.9121154 9.7827724,9.3574275 9.8140254,9.8105469 C 9.8452724,10.255864 9.9038665,10.751957 9.9898074,11.298828 C 10.083553,11.837894 10.20074,12.314456 10.341369,12.728516 C 10.48199,13.134767 10.677302,13.478517 10.927307,13.759766 C 11.185114,14.041017 11.478083,14.181641 11.806213,14.181641 C 11.90777,14.181641 12.017145,14.158204 12.134338,14.111328 C 12.251519,14.056642 12.392144,13.966798 12.556213,13.841797 C 12.728081,13.716798 12.892144,13.509767 13.0484,13.220703 C 13.204644,12.931643 13.337456,12.580081 13.446838,12.166016 C 13.767143,11.064457 13.927299,9.5371148 13.927307,7.5839844 C 13.927299,6.2011806 13.794487,5.0683693 13.528869,4.1855469 C 13.27105,3.302746 12.966362,2.7129029 12.614807,2.4160156 L 12.638244,2.4160156 C 12.364801,2.2129034 12.110895,2.111341 11.876525,2.1113281 M 11.782775,15.201172 C 10.884333,15.201172 10.07574,14.876953 9.3569945,14.228516 C 8.6460547,13.572267 8.0991803,12.716799 7.7163695,11.662109 C 7.3413685,10.607426 7.1538687,9.4589899 7.1538695,8.2167969 C 7.1538687,7.1308672 7.2866812,6.1308682 7.5523071,5.2167969 C 7.8179305,4.302745 8.1694927,3.5488395 8.6069945,2.9550781 C 9.0444915,2.3535282 9.5444914,1.8886849 10.106994,1.5605469 C 10.677302,1.2246231 11.267145,1.0566545 11.876525,1.0566406 C 12.415582,1.0566545 12.962456,1.2129044 13.51715,1.5253906 C 14.079643,1.8300913 14.552298,2.2129034 14.935119,2.6738281 C 15.997609,4.0722765 16.528859,5.8496185 16.528869,8.0058594 C 16.528859,9.0293028 16.42339,9.9628956 16.212463,10.806641 C 16.001516,11.642581 15.731985,12.326175 15.403869,12.857422 C 15.075735,13.388673 14.69683,13.837892 14.26715,14.205078 C 13.845268,14.564454 13.423393,14.81836 13.001525,14.966797 C 12.587457,15.123047 12.181207,15.201172 11.782775,15.201172"
       id="text2436"
       sodipodi:nodetypes="cccscccscccccsccccsccccsssssssssssssscsscccccssssssscsssssc" />
  </g>
</svg>
