<?xml version="1.0" encoding="UTF-8" standalone="no"?>
<!-- Created with Inkscape (http://www.inkscape.org/) -->
<svg
   xmlns:dc="http://purl.org/dc/elements/1.1/"
   xmlns:cc="http://creativecommons.org/ns#"
   xmlns:rdf="http://www.w3.org/1999/02/22-rdf-syntax-ns#"
   xmlns:svg="http://www.w3.org/2000/svg"
   xmlns="http://www.w3.org/2000/svg"
   xmlns:sodipodi="http://sodipodi.sourceforge.net/DTD/sodipodi-0.dtd"
   xmlns:inkscape="http://www.inkscape.org/namespaces/inkscape"
   width="16px"
   height="16px"
   id="svg3487"
   sodipodi:version="0.32"
   inkscape:version="0.46"
   sodipodi:docname="9.svg"
   inkscape:output_extension="org.inkscape.output.svg.inkscape">
  <metadata
     id="metadata34">
    <rdf:RDF>
      <cc:Work
         rdf:about="">
        <dc:format>image/svg+xml</dc:format>
        <dc:type
           rdf:resource="http://purl.org/dc/dcmitype/StillImage" />
      </cc:Work>
    </rdf:RDF>
  </metadata>
  <defs
     id="defs3489">
    <inkscape:perspective
       sodipodi:type="inkscape:persp3d"
       inkscape:vp_x="0 : 8 : 1"
       inkscape:vp_y="0 : 1000 : 0"
       inkscape:vp_z="16 : 8 : 1"
       inkscape:persp3d-origin="8 : 5.3333333 : 1"
       id="perspective3308" />
  </defs>
  <sodipodi:namedview
     id="base"
     pagecolor="#ffffff"
     bordercolor="#666666"
     borderopacity="1.0"
     inkscape:pageopacity="0.0"
     inkscape:pageshadow="2"
     inkscape:zoom="15.696216"
     inkscape:cx="5.7566765"
     inkscape:cy="-12.193042"
     inkscape:current-layer="layer1"
     showgrid="true"
     inkscape:grid-bbox="true"
     inkscape:document-units="px"
     inkscape:window-width="1592"
     inkscape:window-height="1123"
     inkscape:window-x="0"
     inkscape:window-y="0" />
  <g
     id="layer1"
     inkscape:label="Layer 1"
     inkscape:groupmode="layer">
    <text
       xml:space="preserve"
       style="font-size:10px;font-style:normal;font-weight:normal;fill:#000000;fill-opacity:1;stroke:none;stroke-width:1px;stroke-linecap:butt;stroke-linejoin:miter;stroke-opacity:1;font-family:Bitstream Vera Sans"
       x="4.2048349"
       y="7.7177491"
       id="text2407"><tspan
         sodipodi:role="line"
         id="tspan2409"
         x="4.2048349"
         y="7.7177491" /></text>
    <path
       style="font-size:24px;font-style:normal;font-variant:normal;font-weight:bold;font-stretch:normal;text-align:start;line-height:100%;writing-mode:lr-tb;text-anchor:start;fill:#000000;fill-opacity:1;stroke:none;stroke-width:1px;stroke-linecap:butt;stroke-linejoin:miter;stroke-opacity:1;font-family:Linux Libertine;-inkscape-font-specification:Linux Libertine Bold"
       d="M 10.273438,7.2910156 L 10.15625,7.3730469 C 10.171867,7.0605548 10.17968,6.82618 10.179688,6.6699219 C 10.17968,5.9277434 10.121086,5.2675878 10.003906,4.6894531 C 9.894524,4.111339 9.7499929,3.6543082 9.5703125,3.3183594 C 9.3984308,2.9746214 9.195306,2.6972779 8.9609375,2.4863281 C 8.7265564,2.2675908 8.4999942,2.1191535 8.28125,2.0410156 C 8.0624946,1.9629036 7.8398386,1.9238412 7.6132812,1.9238281 C 7.1132768,1.9238412 6.6835897,2.1933721 6.3242188,2.7324219 C 5.9648404,3.2636836 5.7851531,4.080089 5.7851562,5.1816406 C 5.7851531,5.4941501 5.8203093,5.8144623 5.890625,6.1425781 C 5.9687467,6.4707116 6.0898403,6.8066488 6.2539062,7.1503906 C 6.4257775,7.4941481 6.6796835,7.7753978 7.015625,7.9941406 C 7.3515578,8.2128974 7.7499949,8.3222723 8.2109375,8.3222656 C 8.9374937,8.3222723 9.624993,7.9785226 10.273438,7.2910156 M 4.0039062,14.451172 L 4.3203125,14.333984 C 5.148435,14.154298 5.8124968,13.955079 6.3125,13.736328 C 6.8203083,13.51758 7.2734329,13.248049 7.671875,12.927734 C 8.8437438,12.013675 9.609368,10.619145 9.96875,8.7441406 C 9.2031185,9.1347714 8.4609317,9.3300838 7.7421875,9.3300781 C 7.0156206,9.3300838 6.37109,9.2246151 5.8085938,9.0136719 C 5.2539037,8.8027405 4.8281228,8.5527408 4.53125,8.2636719 C 4.2343734,7.9668039 3.9921862,7.6230542 3.8046875,7.2324219 C 3.624999,6.841805 3.5078116,6.5019616 3.453125,6.2128906 C 3.4062493,5.9160247 3.3828118,5.6308687 3.3828125,5.3574219 C 3.3828118,4.9902443 3.4218742,4.6230572 3.5,4.2558594 C 3.5781241,3.8886829 3.7187489,3.5058708 3.921875,3.1074219 C 4.132811,2.7011841 4.3984358,2.349622 4.71875,2.0527344 C 5.0390601,1.7480601 5.4687472,1.4980603 6.0078125,1.3027344 C 6.5468711,1.0996232 7.1601517,0.99806083 7.8476562,0.99804688 C 8.1992132,0.99806083 8.5390566,1.033217 8.8671875,1.1035156 C 9.2031185,1.1660294 9.5546806,1.2714981 9.921875,1.4199219 C 10.296867,1.5683728 10.640617,1.7871225 10.953125,2.0761719 C 11.265616,2.365247 11.546866,2.7129029 11.796875,3.1191406 C 12.054678,3.5254021 12.253897,4.0410265 12.394531,4.6660156 C 12.542959,5.2832128 12.617178,5.9785246 12.617188,6.7519531 C 12.617178,8.1035225 12.31249,9.3769587 11.703125,10.572266 C 11.101554,11.767581 10.191399,12.802737 8.9726562,13.677734 L 8.984375,13.677734 C 8.4453067,14.06836 7.7851511,14.369141 7.0039062,14.580078 C 6.2226527,14.791016 5.2265599,14.951172 4.015625,15.060547 L 4.0039062,14.451172"
       id="text2436" />
  </g>
</svg>
