<?xml version="1.0" encoding="UTF-8" standalone="no"?>
<!-- Created with Inkscape (http://www.inkscape.org/) -->
<svg
   xmlns:dc="http://purl.org/dc/elements/1.1/"
   xmlns:cc="http://web.resource.org/cc/"
   xmlns:rdf="http://www.w3.org/1999/02/22-rdf-syntax-ns#"
   xmlns:svg="http://www.w3.org/2000/svg"
   xmlns="http://www.w3.org/2000/svg"
   xmlns:xlink="http://www.w3.org/1999/xlink"
   xmlns:sodipodi="http://inkscape.sourceforge.net/DTD/sodipodi-0.dtd"
   xmlns:inkscape="http://www.inkscape.org/namespaces/inkscape"
   width="210mm"
   height="297mm"
   id="svg2961"
   sodipodi:version="0.32"
   inkscape:version="0.43"
   sodipodi:docbase="/home/coolo/prod/KDE4/kdegames/libkdegames/carddecks"
   sodipodi:docname="spots.svg">
  <defs
     id="defs2963" />
  <sodipodi:namedview
     id="base"
     pagecolor="#ffffff"
     bordercolor="#666666"
     borderopacity="1.0"
     inkscape:pageopacity="0.0"
     inkscape:pageshadow="2"
     inkscape:zoom="6.0576248"
     inkscape:cx="202.01715"
     inkscape:cy="834.55102"
     inkscape:document-units="px"
     inkscape:current-layer="layer1"
     inkscape:window-width="1392"
     inkscape:window-height="975"
     inkscape:window-x="0"
     inkscape:window-y="0" />
  <metadata
     id="metadata2966">
    <rdf:RDF>
      <cc:Work
         rdf:about="">
        <dc:format>image/svg+xml</dc:format>
        <dc:type
           rdf:resource="http://purl.org/dc/dcmitype/StillImage" />
      </cc:Work>
    </rdf:RDF>
  </metadata>
  <g
     inkscape:label="Ebene 1"
     inkscape:groupmode="layer"
     id="layer1">
    <use
       height="615"
       width="1027"
       y="0"
       x="0"
       id="use2523"
       xlink:href="#cl"
       transform="matrix(1.565575,0,0,1.565575,-166.4916,62.38243)" />
    <use
       height="615"
       width="1027"
       y="0"
       x="0"
       id="use2527"
       xlink:href="#dl"
       transform="matrix(1.565575,0,0,1.565575,-100.4915,6.432429)" />
    <use
       height="615"
       width="1027"
       y="0"
       x="0"
       id="use2531"
       xlink:href="#hl"
       transform="matrix(1.565575,0,0,1.565575,-116.4915,78.48143)" />
    <use
       height="615"
       width="1027"
       y="0"
       x="0"
       id="use2535"
       xlink:href="#sl"
       transform="matrix(1.565575,0,0,1.565575,-52.49153,36.53043)" />
    <use
       height="615"
       width="1027"
       y="0"
       x="0"
       id="use2973"
       xlink:href="#cl"
       transform="matrix(1.565575,0,0,1.565575,944.9369,539.5253)" />
    <use
       height="615"
       width="1027"
       y="0"
       x="0"
       id="use2975"
       xlink:href="#dl"
       transform="matrix(1.565575,0,0,1.565575,1010.937,483.5753)" />
    <use
       height="615"
       width="1027"
       y="0"
       x="0"
       id="use2977"
       xlink:href="#hl"
       transform="matrix(1.565575,0,0,1.565575,994.937,555.6243)" />
    <use
       height="615"
       width="1027"
       y="0"
       x="0"
       id="use2979"
       xlink:href="#sl"
       transform="matrix(1.565575,0,0,1.565575,1058.937,513.6733)" />
    <path
       style="fill:#000000"
       d="M 188.64624,162.75631 C 184.30647,162.72344 180.83715,168.87616 179.44849,167.84444 C 178.84261,165.77787 184.34092,161.58214 184.34092,157.66821 C 184.34092,153.75426 180.42697,152.58008 178.47001,152.58008 C 176.51304,152.58008 172.59909,153.75426 172.59909,157.66821 C 172.59909,161.58214 178.09741,165.77787 177.49152,167.84444 C 176.10441,168.87616 172.63354,162.72344 168.29377,162.75631 C 165.55401,162.75631 162.42286,165.49608 162.42286,168.23583 C 162.42286,171.75839 164.37983,174.49814 168.29377,174.49814 C 172.2077,174.49814 176.77135,169.49299 177.29583,170.1928 C 178.47001,171.75839 175.73026,179.97765 173.77327,182.32601 C 173.77327,182.32601 176.12165,181.54322 178.47001,181.54322 C 180.81836,181.54322 183.16674,182.32601 183.16674,182.32601 C 181.20975,179.97765 178.47001,171.75839 179.64418,170.1928 C 180.17022,169.49299 184.73231,174.49814 188.64624,174.49814 C 192.56018,174.49814 194.51715,171.75839 194.51715,168.23583 C 194.51715,165.49608 191.38601,162.75631 188.64624,162.75631 z "
       id="path2993" />
    <path
       style="fill:#df0000"
       d="M 119.11621,253.29546 C 115.18193,249.23906 112.55646,245.5208 112.55646,245.5208 C 112.55646,245.5208 109.93098,249.23906 105.99671,253.29546 C 102.05771,257.35186 97.683493,260.39377 97.683493,260.39377 C 97.683493,260.39377 102.05771,263.43412 105.99671,267.49366 C 109.93256,271.54848 112.55646,275.26673 112.55646,275.26673 C 112.55646,275.26673 115.18193,271.54848 119.11621,267.49366 C 123.05364,263.43412 127.42942,260.39377 127.42942,260.39377 C 127.42942,260.39377 123.05364,257.35186 119.11621,253.29546 z "
       id="path2995" />
    <path
       style="fill:#df0000"
       d="M 125.90922,216.98036 C 119.87862,216.98036 118.47274,222.61643 118.47274,222.61643 C 118.47274,222.61643 117.06686,216.98036 111.03626,216.98036 C 106.81704,216.98036 103.59978,219.35378 103.59978,223.82976 C 103.59978,233.0275 116.90717,239.28981 118.47274,244.37793 C 120.03831,239.28981 133.34571,233.0275 133.34571,223.82976 C 133.34571,219.35378 130.12845,216.98036 125.90922,216.98036 z "
       id="path2997" />
    <path
       style="fill:#000000"
       d="M 134.60456,209.55712 C 134.21317,214.64522 120.51439,219.34196 120.51439,226.77844 C 120.51439,232.25795 124.12304,233.82353 126.77669,233.82353 C 130.56851,233.82353 132.93411,231.81332 133.31296,230.69238 C 133.31296,230.31821 133.82178,230.31821 133.82178,230.69238 C 134.21317,233.82353 131.08203,242.43419 129.12505,243.21697 C 129.90783,243.21697 132.09113,243.2596 134.43948,243.2596 C 136.78784,243.2596 139.3013,243.21697 140.08408,243.21697 C 138.1271,242.43419 134.99596,233.82353 135.38735,230.69238 C 135.38735,230.31821 135.89617,230.31821 135.89617,230.69238 C 136.27502,231.81332 138.64061,233.82353 142.43244,233.82353 C 145.08609,233.82353 148.69474,232.25795 148.69474,226.77844 C 148.69474,219.34196 134.99596,214.64522 134.60456,209.55712 z "
       id="path2999"
       sodipodi:nodetypes="csscccscccssc" />
    <use
       height="615"
       width="1027"
       y="0"
       x="0"
       id="use703"
       xlink:href="#cl"
       transform="matrix(1.683636,0,0,1.683636,1002.405,-725.5486)" />
    <use
       height="615"
       width="1027"
       y="0"
       x="0"
       id="use707"
       xlink:href="#dl"
       transform="matrix(1.683636,0,0,1.683636,1076.404,-768.9606)" />
    <use
       height="615"
       width="1027"
       y="0"
       x="0"
       id="use711"
       xlink:href="#hl"
       transform="matrix(1.683636,0,0,1.683636,1130.404,-778.3716)" />
    <use
       height="615"
       width="1027"
       y="0"
       x="0"
       id="use715"
       xlink:href="#sl"
       transform="matrix(1.683636,0,0,1.683636,1126.404,-715.7826)" />
    <path
       style="fill:#000000"
       d="M 114.96307,193.90542 C 114.96307,193.90542 118.96172,190.70651 118.96172,186.27181 C 118.96172,183.67564 116.65681,179.36554 111.3281,179.36554 C 105.9994,179.36554 103.69449,183.67732 103.69449,186.27181 C 103.69449,190.70651 107.69314,193.90542 107.69314,193.90542 C 103.2517,190.44554 95.333567,192.80768 95.333567,199.72237 C 95.333567,203.18394 98.162077,206.99232 102.6035,206.99232 C 107.9322,206.99232 110.23711,201.17535 110.23711,201.17535 C 110.23711,201.17535 110.91392,207.80552 106.96581,211.35461 L 115.6904,211.35461 C 111.74229,207.8072 112.4191,201.17535 112.4191,201.17535 C 112.4191,201.17535 114.72401,206.99232 120.05271,206.99232 C 124.49583,206.99232 127.32264,203.18226 127.32264,199.72237 C 127.32264,192.80768 119.40451,190.44554 114.96307,193.90542 z "
       id="path3048" />
    <path
       style="fill:#df0000"
       d="M 285.72527,170.41522 C 282.161,165.59329 279.78372,161.17376 279.78372,161.17376 C 279.78372,161.17376 277.40642,165.59329 273.84216,170.41522 C 270.27621,175.23547 266.31463,178.85193 266.31463,178.85193 C 266.31463,178.85193 270.27621,182.46669 273.84216,187.29032 C 277.40642,192.11057 279.78372,196.53012 279.78372,196.53012 C 279.78372,196.53012 282.161,192.11057 285.72527,187.29032 C 289.2912,182.46669 293.25281,178.85193 293.25281,178.85193 C 293.25281,178.85193 289.2912,175.23547 285.72527,170.41522 z "
       id="path3050" />
    <path
       style="fill:#df0000"
       d="M 184.65904,202.65838 C 179.19902,202.65838 178.47,208.51239 178.47,208.51239 C 178.47,208.51239 177.74099,202.65838 172.28097,202.65838 C 168.4591,202.65838 165.00091,205.28318 165.00091,210.23474 C 165.00091,216.77736 177.10795,228.23114 178.47,232.96384 C 179.83879,228.22607 191.93909,216.77736 191.93909,210.23474 C 191.93909,205.28318 188.48092,202.65838 184.65904,202.65838 z "
       id="path3052" />
    <path
       style="fill:#000000"
       d="M 286.10914,223.03459 C 285.7017,216.20408 273.06602,203.34784 272.65858,200.13208 C 272.25114,203.34616 259.61546,216.2024 259.20802,223.03459 C 258.92348,227.86327 262.06177,229.86509 264.91553,229.86509 C 268.99163,229.86509 270.21394,225.44556 270.62138,224.24007 C 270.62138,223.83769 271.43626,223.83769 271.43626,224.24007 C 271.8437,225.44556 268.7374,235.49014 267.76763,235.49014 L 277.55124,235.49014 C 276.58144,235.49014 273.47514,225.44556 273.88258,224.24007 C 273.88258,223.83769 274.69914,223.83769 274.69914,224.24007 C 275.10658,225.44556 276.32892,229.86509 280.40499,229.86509 C 283.25707,229.86341 286.39368,227.86327 286.10914,223.03459 z "
       id="path3054" />
    <path
       sodipodi:nodetypes="cscsssccccccssscsc"
       id="path908"
       style="fill:#000000;fill-opacity:1;fill-rule:evenodd;stroke:none;stroke-width:1pt;stroke-linecap:butt;stroke-linejoin:miter;stroke-opacity:1"
       d="M 219.72641,204.45611 C 217.06003,204.45611 214.89655,207.71963 214.89655,211.74177 C 214.89655,215.16835 219.28864,220.93344 219.11807,223.67135 C 217.70782,224.45377 213.35082,217.23383 211.09903,217.23383 C 208.43263,217.23383 206.26916,220.49735 206.26916,224.51949 C 206.26916,228.54164 208.43263,231.80516 211.09903,231.80516 C 213.41155,231.80516 217.37468,224.59117 219.11807,225.2425 L 216.18916,238.11611 L 223.21274,238.0744 C 223.21274,238.0744 220.1358,225.59321 220.13197,225.29811 L 220.18728,225.29811 L 220.18728,225.31202 C 221.89458,224.67231 225.99314,231.94419 228.28929,231.9442 C 230.95567,231.9442 233.11915,228.68068 233.11915,224.65853 C 233.11915,220.63639 230.95567,217.37287 228.28929,217.37287 C 226.04666,217.37287 221.98158,224.4734 220.19649,223.74087 C 220.22157,220.93544 224.55628,215.16458 224.55628,211.74177 C 224.55628,207.71963 222.3928,204.45611 219.72641,204.45611 z " />
    <path
       d="M 178.38455,251.33917 C 174.2587,259.58465 171.25031,263.83722 165.045,268.37873 C 170.91738,272.86574 175.05769,277.5032 178.50518,284.99917 C 181.58443,277.87795 185.35159,272.56922 191.895,268.15607 C 185.31301,264.80716 181.50236,259.50242 178.38455,251.33917 z "
       style="fill:#ff0000;fill-opacity:1;fill-rule:evenodd;stroke:none;stroke-width:1pt;stroke-linecap:butt;stroke-linejoin:round;stroke-opacity:1"
       id="path1608" />
    <g
       transform="matrix(0.286388,0,0,0.388772,222.5166,193.1137)"
       style="fill:#ff0000;fill-opacity:1"
       id="g1390">
      <path
         d="M 147.20601,156.41679 C 144.67035,156.42954 141.88421,156.89888 138.79976,157.94804 C 105.1765,177.48492 150.50459,208.98936 169.64351,236.04179 L 170.19602,236.1801 C 191.229,206.61098 231.26801,174.07246 200.67476,157.94804 C 176.43799,149.70401 169.96344,177.14611 169.73726,178.13554 C 169.53987,177.27202 164.59485,156.32936 147.20601,156.41679 z "
         transform="matrix(1.105375,0,0,1.079637,-12.01415,-18.86731)"
         style="fill-rule:evenodd;stroke:none;stroke-width:3.42894149;stroke-linecap:butt;stroke-linejoin:round;stroke-miterlimit:4;stroke-opacity:1"
         id="path1392" />
    </g>
    <g
       id="g2373"
       transform="matrix(1.000012,0,0,0.400814,-42.06178,119.3169)">
      <path
         sodipodi:nodetypes="cccccccccc"
         id="path2375"
         style="fill:#000000;fill-opacity:1;fill-rule:evenodd;stroke:none;stroke-width:0.75889903;stroke-linecap:butt;stroke-linejoin:round;stroke-miterlimit:4;stroke-opacity:1"
         d="M 260.1787,148.98858 C 255.25443,168.51051 240.14427,201.754 249.71652,212.01763 C 255.52698,216.74237 258.2921,207.0706 259.46324,200.66733 L 259.69781,200.66733 L 255.839,232.96768 L 264.77643,232.87256 C 264.77643,232.87256 260.92638,201.8236 260.91762,200.63563 L 261.01145,200.63563 C 261.95739,205.86794 265.54682,216.6996 269.49533,212.57451 C 281.04105,201.01085 264.0397,168.10532 260.1787,148.98858 z " />
    </g>
  </g>
</svg>
