<?xml version="1.0" encoding="UTF-8" standalone="no"?>
<!-- Created with Inkscape (http://www.inkscape.org/) -->
<svg
   xmlns:dc="http://purl.org/dc/elements/1.1/"
   xmlns:cc="http://web.resource.org/cc/"
   xmlns:rdf="http://www.w3.org/1999/02/22-rdf-syntax-ns#"
   xmlns:svg="http://www.w3.org/2000/svg"
   xmlns="http://www.w3.org/2000/svg"
   xmlns:sodipodi="http://sodipodi.sourceforge.net/DTD/sodipodi-0.dtd"
   xmlns:inkscape="http://www.inkscape.org/namespaces/inkscape"
   width="700"
   height="350"
   id="svg7628"
   sodipodi:version="0.32"
   inkscape:version="0.45.1"
   sodipodi:docbase="/home/kde-devel/src/KDE/kdegames/libkdegames/digits/themes"
   sodipodi:docname="fourteen-segment-sample.svg"
   version="1.0"
   inkscape:output_extension="org.inkscape.output.svg.inkscape">
  <defs
     id="defs7630" />
  <sodipodi:namedview
     id="base"
     pagecolor="#ffffff"
     bordercolor="#666666"
     borderopacity="1.0"
     gridtolerance="10000"
     guidetolerance="10"
     objecttolerance="10"
     inkscape:pageopacity="0.0"
     inkscape:pageshadow="2"
     inkscape:zoom="11.313708"
     inkscape:cx="313.34799"
     inkscape:cy="289.00055"
     inkscape:document-units="px"
     inkscape:current-layer="layer1"
     inkscape:window-width="1611"
     inkscape:window-height="973"
     inkscape:window-x="40"
     inkscape:window-y="46"
     showgrid="false"
     showguides="true"
     inkscape:guide-bbox="true"
     width="700px"
     height="350px" />
  <metadata
     id="metadata7633">
    <rdf:RDF>
      <cc:Work
         rdf:about="">
        <dc:format>image/svg+xml</dc:format>
        <dc:type
           rdf:resource="http://purl.org/dc/dcmitype/StillImage" />
      </cc:Work>
    </rdf:RDF>
  </metadata>
  <g
     inkscape:label="Layer 1"
     inkscape:groupmode="layer"
     id="layer1"
     transform="translate(-165.4719,-5.300633)">
    <rect
       style="fill:#323232;fill-opacity:1;fill-rule:evenodd;stroke-width:0.1;stroke-miterlimit:4;stroke-dasharray:none;stroke-opacity:1"
       id="rect7317"
       width="91.966263"
       height="69.026535"
       x="394.74323"
       y="16.765926" />
    <g
       id="digit"
       transform="translate(21.655146,-2.0329321)">
      <rect
         style="fill:none;fill-opacity:1;fill-rule:evenodd;stroke:none;stroke-width:0.1;stroke-miterlimit:4;stroke-dasharray:none;stroke-opacity:1"
         id="digitBackground"
         width="21"
         height="30"
         x="418.31857"
         y="50.565269" />
      <g
         transform="matrix(1.1482353,0,0,1.1482353,-43.987308,-12.328752)"
         id="digitFace">
        <path
           inkscape:label="#0x0"
           sodipodi:nodetypes="cssssssssccccscsscccsscscccc"
           id="0x0"
           d="M 419.12887,55.922461 C 419.12887,55.757441 419.02654,55.669581 418.86143,55.669581 C 418.65775,55.669581 418.46837,55.669581 418.26655,55.669581 C 417.78086,55.669581 412.7716,55.669581 412.33052,55.669581 C 412.12635,55.669581 411.93641,55.669581 411.73401,55.669581 C 409.60056,55.669581 407.72701,55.669581 405.27305,55.669581 C 405.07071,55.669581 404.88077,55.669581 404.67656,55.669581 C 404.23551,55.669581 405.73471,55.669581 405.24904,55.669581 C 405.04718,55.669581 404.85784,55.669581 404.65416,55.669581 C 404.48904,55.669581 404.38672,55.757441 404.38672,55.922461 C 404.38716,56.147211 404.38543,55.883411 404.38672,56.105621 C 404.38672,56.266931 404.52705,56.395081 404.52612,56.394151 L 404.91352,56.784781 C 405.05607,56.936081 405.19661,57.023051 405.38031,57.023081 C 405.39592,57.023081 404.66843,57.021821 405.18391,57.021431 C 405.19232,57.022031 405.20549,57.021141 405.21472,57.021431 C 405.23998,57.022241 405.26537,57.023081 405.29902,57.023081 C 405.33334,57.023081 406.70757,57.020951 408.13559,57.019811 C 408.35319,57.019931 408.30147,57.019691 408.50354,57.019811 C 408.70492,57.019691 408.65313,57.019931 408.86987,57.019811 C 410.2982,57.020951 411.67374,57.023081 411.7081,57.023081 C 411.74154,57.023081 411.76559,57.022241 411.79074,57.021431 C 411.80012,57.021141 411.81305,57.022031 411.82154,57.021431 C 412.33759,57.021821 418.11962,57.023081 418.13522,57.023081 C 418.31893,57.023051 418.45952,56.936081 418.60207,56.784781 L 418.98946,56.394151 C 418.9885,56.395081 419.12887,56.266931 419.12887,56.105621 C 419.13012,55.883411 419.12842,56.147211 419.12887,55.922461 z "
           style="fill:#ffff00;fill-opacity:0.03921569;fill-rule:evenodd;stroke-width:0.1;stroke-linecap:butt;stroke-linejoin:miter;stroke-opacity:1" />
        <path
           sodipodi:nodetypes="cssssssssccccscsscccsscscccc"
           id="0x1"
           d="M 419.53636,56.304491 C 419.70138,56.304491 419.7892,56.406811 419.7892,56.571941 C 419.7892,56.775611 419.7892,56.964951 419.7892,57.166801 C 419.7892,57.652491 419.7892,58.015991 419.7892,58.457071 C 419.7892,58.661241 419.7892,58.851181 419.7892,59.053581 C 419.7892,61.187051 419.7892,63.060591 419.7892,65.514511 C 419.7892,65.716881 419.7892,65.906821 419.7892,66.110991 C 419.7892,66.552081 419.7892,65.052871 419.7892,65.538551 C 419.7892,65.740421 419.7892,65.929751 419.7892,66.133431 C 419.7892,66.298541 419.70138,66.400881 419.53636,66.400881 C 419.31156,66.400441 419.57541,66.402121 419.35316,66.400881 C 419.19186,66.400881 419.06369,66.260501 419.06467,66.261481 L 418.67404,65.874071 C 418.5227,65.731521 418.43574,65.590951 418.43574,65.407241 C 418.43574,65.391641 418.43696,66.119151 418.43736,65.603641 C 418.43679,65.595271 418.43763,65.582101 418.43736,65.572881 C 418.43655,65.547601 418.43574,65.522221 418.43574,65.488591 C 418.43574,65.454251 418.43784,64.080021 418.43898,62.651971 C 418.43885,62.434371 418.43913,62.486121 418.43898,62.284011 C 418.43913,62.082671 418.43885,62.134421 418.43898,61.917721 C 418.43784,60.489391 418.43574,59.113811 418.43574,59.079491 C 418.43574,59.046021 418.43655,59.021991 418.43736,58.996821 C 418.43763,58.987471 418.43679,58.974531 418.43736,58.966041 C 418.43696,58.449961 418.43574,57.313731 418.43574,57.298131 C 418.43574,57.114371 418.5227,56.973831 418.67404,56.831281 L 419.06467,56.443891 C 419.06369,56.444871 419.19186,56.304491 419.35316,56.304491 C 419.57541,56.303231 419.31156,56.304931 419.53636,56.304491 z "
           style="fill:#ffff00;fill-opacity:0.03921569;fill-rule:evenodd;stroke-width:0.1;stroke-linecap:butt;stroke-linejoin:miter;stroke-opacity:1" />
        <path
           sodipodi:nodetypes="cssssssssccccscsscccsscscccc"
           id="0x2"
           d="M 419.53636,66.407911 C 419.70138,66.407911 419.7892,66.510231 419.7892,66.675341 C 419.7892,66.879031 419.7892,67.068401 419.7892,67.270231 C 419.7892,67.755921 419.7892,68.119411 419.7892,68.560501 C 419.7892,68.764661 419.7892,68.954611 419.7892,69.157001 C 419.7892,71.290471 419.7892,73.164021 419.7892,75.617911 C 419.7892,75.820311 419.7892,76.010251 419.7892,76.214421 C 419.7892,76.655501 419.7892,75.156301 419.7892,75.641971 C 419.7892,75.843851 419.7892,76.033171 419.7892,76.236851 C 419.7892,76.401961 419.70138,76.504291 419.53636,76.504291 C 419.31156,76.503861 419.57541,76.505601 419.35316,76.504291 C 419.19186,76.504291 419.06369,76.363921 419.06467,76.364891 L 418.67404,75.977491 C 418.5227,75.834941 418.43574,75.694411 418.43574,75.510661 C 418.43574,75.495101 418.43696,76.222581 418.43736,75.707061 C 418.43679,75.698691 418.43763,75.685521 418.43736,75.676311 C 418.43655,75.651031 418.43574,75.625641 418.43574,75.592011 C 418.43574,75.557671 418.43784,74.183441 418.43898,72.755391 C 418.43885,72.537791 418.43913,72.589541 418.43898,72.387471 C 418.43913,72.186101 418.43885,72.237841 418.43898,72.021141 C 418.43784,70.592811 418.43574,69.217241 418.43574,69.182921 C 418.43574,69.149441 418.43655,69.125421 418.43736,69.100241 C 418.43763,69.090891 418.43679,69.077961 418.43736,69.069471 C 418.43696,68.553381 418.43574,67.417151 418.43574,67.401551 C 418.43574,67.217831 418.5227,67.077251 418.67404,66.934701 L 419.06467,66.547311 C 419.06369,66.548271 419.19186,66.407911 419.35316,66.407911 C 419.57541,66.406651 419.31156,66.408361 419.53636,66.407911 z "
           style="fill:#ffff00;fill-opacity:0.03921569;fill-rule:evenodd;stroke-width:0.1;stroke-linecap:butt;stroke-linejoin:miter;stroke-opacity:1" />
        <path
           inkscape:label="#0x3"
           sodipodi:nodetypes="cssssssssccccscsscccsscscccc"
           id="0x3"
           d="M 419.12887,76.882471 C 419.12887,77.047511 419.02654,77.135321 418.86143,77.135321 C 418.65775,77.135321 418.46837,77.135321 418.26655,77.135321 C 417.78086,77.135321 412.7716,77.135321 412.33052,77.135321 C 412.12635,77.135321 411.93641,77.135321 411.73401,77.135321 C 409.60056,77.135321 407.72701,77.135321 405.27305,77.135321 C 405.07071,77.135321 404.88077,77.135321 404.67656,77.135321 C 404.23551,77.135321 405.73471,77.135321 405.24904,77.135321 C 405.04718,77.135321 404.85784,77.135321 404.65416,77.135321 C 404.48904,77.135321 404.38672,77.047511 404.38672,76.882471 C 404.38716,76.657721 404.38543,76.921531 404.38672,76.699291 C 404.38672,76.537971 404.52705,76.409821 404.52612,76.410781 L 404.91352,76.020151 C 405.05607,75.868871 405.19661,75.781871 405.38031,75.781871 C 405.39592,75.781871 404.66843,75.783111 405.18391,75.783471 C 405.19232,75.782921 405.20549,75.783801 405.21472,75.783471 C 405.23998,75.782681 405.26537,75.781871 405.29902,75.781871 C 405.33334,75.781871 406.70757,75.783971 408.13559,75.785091 C 408.35319,75.784971 408.30147,75.785261 408.50354,75.785091 C 408.70492,75.785261 408.65313,75.784971 408.86987,75.785091 C 410.2982,75.783971 411.67374,75.781871 411.7081,75.781871 C 411.74154,75.781871 411.76559,75.782711 411.79074,75.783471 C 411.80012,75.783801 411.81305,75.782921 411.82154,75.783471 C 412.33759,75.783111 418.11962,75.781871 418.13522,75.781871 C 418.31893,75.781871 418.45952,75.868871 418.60207,76.020151 L 418.98946,76.410781 C 418.9885,76.409821 419.12887,76.537971 419.12887,76.699291 C 419.13012,76.921531 419.12842,76.657721 419.12887,76.882471 z "
           style="fill:#ffff00;fill-opacity:0.03921569;fill-rule:evenodd;stroke-width:0.1;stroke-linecap:butt;stroke-linejoin:miter;stroke-opacity:1" />
        <path
           inkscape:label="#0x4"
           sodipodi:nodetypes="cssssssssccccscsscccsscscccc"
           id="0x4"
           d="M 403.99851,66.407911 C 403.83344,66.407911 403.74563,66.510231 403.74563,66.675341 C 403.74563,66.879031 403.74563,67.068401 403.74563,67.270231 C 403.74563,67.755921 403.74563,68.119411 403.74563,68.560501 C 403.74563,68.764661 403.74563,68.954611 403.74563,69.157001 C 403.74563,71.290471 403.74563,73.164021 403.74563,75.617911 C 403.74563,75.820311 403.74563,76.010251 403.74563,76.214421 C 403.74563,76.655501 403.74563,75.156301 403.74563,75.641971 C 403.74563,75.843851 403.74563,76.033171 403.74563,76.236851 C 403.74563,76.401961 403.83344,76.504291 403.99851,76.504291 C 404.22326,76.503861 403.95942,76.505601 404.18166,76.504291 C 404.34297,76.504291 404.47114,76.363921 404.47016,76.364891 L 404.86084,75.977491 C 405.01212,75.834941 405.09909,75.694411 405.09909,75.510661 C 405.09909,75.495101 405.09788,76.222581 405.09747,75.707061 C 405.09803,75.698691 405.09719,75.685521 405.09747,75.676311 C 405.09828,75.651031 405.09909,75.625641 405.09909,75.592011 C 405.09909,75.557671 405.09698,74.183441 405.09585,72.755391 C 405.09597,72.537791 405.09573,72.589541 405.09585,72.387471 C 405.09573,72.186101 405.09597,72.237841 405.09585,72.021141 C 405.09698,70.592811 405.09909,69.217241 405.09909,69.182921 C 405.09909,69.149441 405.09828,69.125421 405.09747,69.100241 C 405.09719,69.090891 405.09807,69.077961 405.09747,69.069471 C 405.09788,68.553381 405.09909,67.417151 405.09909,67.401551 C 405.09909,67.217831 405.01212,67.077251 404.86084,66.934701 L 404.47016,66.547311 C 404.47114,66.548271 404.34297,66.407911 404.18166,66.407911 C 403.95942,66.406651 404.22326,66.408361 403.99851,66.407911 z "
           style="fill:#ffff00;fill-opacity:0.03921569;fill-rule:evenodd;stroke-width:0.1;stroke-linecap:butt;stroke-linejoin:miter;stroke-opacity:1" />
        <path
           sodipodi:nodetypes="cssssssssccccscsscccsscscccc"
           id="0x5"
           d="M 403.99851,56.304491 C 403.83344,56.304491 403.74563,56.406811 403.74563,56.571941 C 403.74563,56.775611 403.74563,56.964951 403.74563,57.166801 C 403.74563,57.652491 403.74563,58.015991 403.74563,58.457071 C 403.74563,58.661241 403.74563,58.851181 403.74563,59.053581 C 403.74563,61.187051 403.74563,63.060591 403.74563,65.514511 C 403.74563,65.716881 403.74563,65.906821 403.74563,66.110991 C 403.74563,66.552081 403.74563,65.052871 403.74563,65.538551 C 403.74563,65.740421 403.74563,65.929751 403.74563,66.133431 C 403.74563,66.298541 403.83344,66.400881 403.99851,66.400881 C 404.22326,66.400441 403.95942,66.402121 404.18166,66.400881 C 404.34297,66.400881 404.47114,66.260501 404.47016,66.261481 L 404.86084,65.874071 C 405.01212,65.731521 405.09909,65.590951 405.09909,65.407241 C 405.09909,65.391641 405.09788,66.119151 405.09747,65.603641 C 405.09803,65.595271 405.09719,65.582101 405.09747,65.572881 C 405.09828,65.547601 405.09909,65.522221 405.09909,65.488591 C 405.09909,65.454251 405.09698,64.080021 405.09585,62.651971 C 405.09597,62.434371 405.09573,62.486121 405.09585,62.284011 C 405.09573,62.082671 405.09597,62.134421 405.09585,61.917721 C 405.09698,60.489391 405.09909,59.113811 405.09909,59.079491 C 405.09909,59.046021 405.09828,59.021991 405.09747,58.996821 C 405.09719,58.987471 405.09807,58.974531 405.09747,58.966041 C 405.09788,58.449961 405.09909,57.313731 405.09909,57.298131 C 405.09909,57.114371 405.01212,56.973831 404.86084,56.831281 L 404.47016,56.443891 C 404.47114,56.444871 404.34297,56.304491 404.18166,56.304491 C 403.95942,56.303231 404.22326,56.304931 403.99851,56.304491 z "
           style="fill:#ffff00;fill-opacity:0.03921569;fill-rule:evenodd;stroke-width:0.1;stroke-linecap:butt;stroke-linejoin:miter;stroke-opacity:1" />
        <path
           sodipodi:nodetypes="cccccccccccccccc"
           id="0x6"
           d="M 412.45099,65.495221 C 412.44598,65.592531 412.42072,65.654841 412.35049,65.727041 L 411.87718,66.192221 C 411.83343,66.240851 411.72483,66.247331 411.67297,66.195461 L 411.20775,65.730261 C 411.12067,65.629401 411.10048,65.576881 411.09592,65.453081 L 411.09592,61.995911 L 411.09592,57.360831 L 411.09592,57.290281 C 411.09592,57.116071 411.14584,57.067991 411.31089,57.065701 L 412.23818,57.064601 C 412.40782,57.064601 412.45512,57.118051 412.45051,57.276211 L 412.44937,57.360831 L 412.44937,61.995911 L 412.45099,65.451461 C 412.45099,65.466961 412.45173,65.481341 412.45099,65.495221 z "
           style="fill:#ffff00;fill-opacity:0.03921569;fill-rule:evenodd;stroke:none;stroke-width:0.05;stroke-miterlimit:4;stroke-opacity:1" />
        <path
           inkscape:label="#0x7"
           sodipodi:nodetypes="cccccccccccccccc"
           id="0x7"
           d="M 412.56776,64.158041 C 412.51774,64.243201 412.50045,64.326921 412.50672,64.452891 L 412.50711,65.495291 C 412.51899,65.564031 412.61243,65.638411 412.68782,65.627661 L 413.04026,65.628921 C 413.17456,65.599231 413.21512,65.560951 413.28853,65.459591 L 418.28437,58.770401 L 418.29432,58.755371 C 418.34809,58.682591 418.3641,58.611831 418.36102,58.464721 L 418.362,57.214111 C 418.36074,57.132931 418.3288,57.080891 418.18456,57.082601 L 418.00731,57.079841 C 417.89167,57.082361 417.88909,57.099461 417.80144,57.203731 L 417.75559,57.262791 L 412.62153,64.081361 C 412.61288,64.094381 412.57491,64.145881 412.56776,64.158041 z "
           style="fill:#ffff00;fill-opacity:0.03921569;fill-rule:evenodd;stroke:none;stroke-width:0.05;stroke-miterlimit:4;stroke-opacity:1" />
        <path
           sodipodi:nodetypes="cccccccccccccccccc"
           id="0x8"
           d="M 412.56,65.721981 C 412.46268,65.726991 412.40041,65.752271 412.32821,65.822501 L 411.86299,66.295801 C 411.81435,66.339541 411.80789,66.448141 411.85976,66.500001 L 412.32494,66.965231 C 412.42581,67.052321 412.47837,67.072481 412.60212,67.077071 L 416.05928,67.077071 L 418.24592,67.077071 L 418.26376,67.077071 C 418.38755,67.072481 418.44006,67.052321 418.54094,66.965231 L 419.0045,66.500001 C 419.05637,66.448141 419.04991,66.339541 419.00126,66.295801 L 418.53767,65.822501 C 418.45515,65.742231 418.38594,65.721981 418.26214,65.721981 L 418.24592,65.723601 L 416.05928,65.723601 L 412.60374,65.721981 C 412.58829,65.721981 412.57389,65.721261 412.56,65.721981 z "
           style="fill:#ffff00;fill-opacity:0.03921569;fill-rule:evenodd;stroke:none;stroke-width:0.05;stroke-miterlimit:4;stroke-opacity:1" />
        <path
           inkscape:label="0x9"
           sodipodi:nodetypes="cccccccccccccccc"
           id="0x9"
           d="M 418.30369,74.247191 C 418.35366,74.332351 418.37097,74.416071 418.3647,74.542061 L 418.36431,75.584441 C 418.35241,75.653181 418.25902,75.727571 418.18363,75.716811 L 417.83116,75.718071 C 417.69686,75.688431 417.6563,75.650101 417.58292,75.548741 L 412.58708,68.859551 L 412.5771,68.844511 C 412.52332,68.771741 412.50735,68.701001 412.51038,68.553871 L 412.50945,67.303261 C 412.51071,67.222081 412.5426,67.170041 412.68689,67.171741 L 412.86411,67.168991 C 412.97973,67.171501 412.98236,67.188641 413.07002,67.292871 L 413.11586,67.351941 L 418.24988,74.170511 C 418.25857,74.183531 418.29654,74.235031 418.30369,74.247191 z "
           style="fill:#ffff00;fill-opacity:0.03921569;fill-rule:evenodd;stroke:none;stroke-width:0.05;stroke-miterlimit:4;stroke-opacity:1" />
        <path
           sodipodi:nodetypes="cccccccccccccccc"
           id="0xa"
           d="M 412.45099,67.303621 C 412.44598,67.206311 412.42072,67.144051 412.35049,67.071851 L 411.87718,66.606671 C 411.83343,66.558021 411.72483,66.551511 411.67297,66.603431 L 411.20775,67.068611 C 411.12067,67.169491 411.10048,67.221991 411.09592,67.345791 L 411.09592,70.802961 L 411.09592,75.438011 L 411.09592,75.508561 C 411.09592,75.682821 411.14584,75.730841 411.31089,75.733151 L 412.23818,75.734271 C 412.40782,75.734271 412.45512,75.680781 412.45051,75.522631 L 412.44937,75.438011 L 412.44937,70.802961 L 412.45099,67.347411 C 412.45099,67.331931 412.45173,67.317531 412.45099,67.303621 z "
           style="fill:#ffff00;fill-opacity:0.03921569;fill-rule:evenodd;stroke:none;stroke-width:0.05;stroke-miterlimit:4;stroke-opacity:1" />
        <path
           inkscape:label="#0xb"
           sodipodi:nodetypes="cccccccccccccccc"
           id="0xb"
           d="M 405.24076,74.247191 C 405.19073,74.332351 405.17344,74.416071 405.17971,74.542091 L 405.18011,75.584441 C 405.19199,75.653181 405.28543,75.727571 405.36082,75.716811 L 405.71326,75.718071 C 405.84756,75.688431 405.88811,75.650101 405.96153,75.548741 L 410.95736,68.859551 L 410.96732,68.844511 C 411.02108,68.771741 411.0371,68.701001 411.03401,68.553871 L 411.035,67.303261 C 411.03374,67.222081 411.00179,67.170041 410.85755,67.171741 L 410.6803,67.168991 C 410.56467,67.171501 410.56208,67.188641 410.47443,67.292871 L 410.42859,67.351941 L 405.29452,74.170511 C 405.28588,74.183531 405.24791,74.235031 405.24076,74.247191 z "
           style="fill:#ffff00;fill-opacity:0.03921569;fill-rule:evenodd;stroke:none;stroke-width:0.05;stroke-miterlimit:4;stroke-opacity:1" />
        <path
           sodipodi:nodetypes="cccccccccccccccccc"
           id="0xc"
           d="M 405.23647,65.721981 C 405.13916,65.726991 405.07689,65.752271 405.00468,65.822501 L 404.5395,66.295801 C 404.49087,66.339541 404.48436,66.448141 404.53623,66.500001 L 405.00144,66.965231 C 405.10232,67.052321 405.15485,67.072481 405.27863,67.077071 L 408.75873,67.077071 L 410.92239,67.077071 L 410.94023,67.077071 C 411.06401,67.072481 411.11653,67.052321 411.21741,66.965231 L 411.68101,66.500001 C 411.73284,66.448141 411.72638,66.339541 411.67774,66.295801 L 411.21418,65.822501 C 411.13165,65.742231 411.06241,65.721981 410.93861,65.721981 L 410.92239,65.723601 L 408.75873,65.723601 L 405.28025,65.721981 C 405.26476,65.721981 405.25037,65.721261 405.23647,65.721981 z "
           style="fill:#ffff00;fill-opacity:0.03921569;fill-rule:evenodd;stroke:none;stroke-width:0.05;stroke-miterlimit:4;stroke-opacity:1" />
        <path
           sodipodi:nodetypes="cccccccccccccccc"
           id="0xd"
           d="M 410.95976,64.171751 C 411.00977,64.256891 411.02707,64.340631 411.02081,64.466651 L 411.02039,65.509001 C 411.00851,65.577721 410.91507,65.652121 410.83968,65.641371 L 410.48726,65.642631 C 410.35294,65.612991 410.31239,65.574661 410.23897,65.473301 L 405.24314,58.784111 L 405.23315,58.769071 C 405.17942,58.696301 405.1634,58.625541 405.16643,58.478431 L 405.1655,57.227821 C 405.16676,57.146641 405.19871,57.094601 405.34296,57.096301 L 405.5202,57.093551 C 405.63578,57.096061 405.63842,57.113201 405.72607,57.217431 L 405.77191,57.276501 L 410.90598,64.095051 C 410.91464,64.108071 410.95259,64.159581 410.95976,64.171751 z "
           style="fill:#ffff00;fill-opacity:0.03921569;fill-rule:evenodd;stroke:none;stroke-width:0.05;stroke-miterlimit:4;stroke-opacity:1" />
      </g>
    </g>
    <g
       id="punctuation">
      <rect
         style="fill:none;fill-opacity:1;fill-rule:evenodd;stroke:none;stroke-width:0.1;stroke-miterlimit:4;stroke-dasharray:none;stroke-opacity:1"
         id="punctuationBackground"
         width="7"
         height="30"
         x="432.81427"
         y="48.620728" />
      <g
         transform="matrix(1.1012272,0,0,1.1012272,-24.059002,-3.3486282)"
         id="punctuationFace">
        <path
           sodipodi:type="arc"
           style="fill:#ffaa00;fill-opacity:0.03921569;fill-rule:evenodd;stroke-width:1;stroke-miterlimit:4;stroke-dasharray:none;stroke-opacity:1"
           id="0xe"
           sodipodi:cx="-482.5"
           sodipodi:cy="1169.1479"
           sodipodi:rx="21.785715"
           sodipodi:ry="21.785715"
           d="M -460.71428 1169.1479 A 21.785715 21.785715 0 1 1  -504.28572,1169.1479 A 21.785715 21.785715 0 1 1  -460.71428 1169.1479 z"
           transform="matrix(5.186907e-2,0,-9.3515597e-6,5.186907e-2,443.04267,-5.4762798)" />
        <rect
           style="fill:#ffff00;fill-opacity:0.03921569;fill-rule:evenodd"
           id="0xf"
           width="4.5078058"
           height="1.7677671"
           x="415.87335"
           y="58.496643" />
        <path
           sodipodi:type="arc"
           style="fill:#ffaa00;fill-opacity:0.03921569;fill-rule:evenodd;stroke-width:1;stroke-miterlimit:4;stroke-dasharray:none;stroke-opacity:1"
           id="0x10"
           sodipodi:cx="-482.5"
           sodipodi:cy="1169.1479"
           sodipodi:rx="21.785715"
           sodipodi:ry="21.785715"
           d="M -460.71428 1169.1479 A 21.785715 21.785715 0 1 1  -504.28572,1169.1479 A 21.785715 21.785715 0 1 1  -460.71428 1169.1479 z"
           transform="matrix(5.186907e-2,0,-9.3515597e-6,5.186907e-2,443.02051,3.0975202)" />
        <path
           transform="matrix(5.186907e-2,0,0,5.186907e-2,443.04736,9.3256102)"
           d="M -460.71428 1169.1479 A 21.785715 21.785715 0 1 1  -504.28572,1169.1479 A 21.785715 21.785715 0 1 1  -460.71428 1169.1479 z"
           sodipodi:ry="21.785715"
           sodipodi:rx="21.785715"
           sodipodi:cy="1169.1479"
           sodipodi:cx="-482.5"
           id="0x11"
           style="fill:#ffff00;fill-opacity:0.03921569;fill-rule:evenodd;stroke-width:1;stroke-miterlimit:4;stroke-dasharray:none;stroke-opacity:1"
           sodipodi:type="arc" />
        <path
           sodipodi:nodetypes="cccc"
           id="0x12"
           d="M 418.73037,71.052231 C 417.79757,72.107581 417.63818,72.290101 415.7994,73.246021 C 416.71353,71.761251 416.66643,71.624381 416.79611,70.161701 C 416.87538,71.147991 417.90904,71.501621 418.73037,71.052231 z "
           style="fill:#ffff00;fill-opacity:0.03921569;fill-rule:evenodd;stroke-width:0.1;stroke-miterlimit:4;stroke-opacity:1" />
      </g>
    </g>
  </g>
</svg>
