<?xml version="1.0" encoding="UTF-8" standalone="no"?>
<!-- Created with Inkscape (http://www.inkscape.org/) -->
<svg
   xmlns:dc="http://purl.org/dc/elements/1.1/"
   xmlns:cc="http://web.resource.org/cc/"
   xmlns:rdf="http://www.w3.org/1999/02/22-rdf-syntax-ns#"
   xmlns:svg="http://www.w3.org/2000/svg"
   xmlns="http://www.w3.org/2000/svg"
   xmlns:xlink="http://www.w3.org/1999/xlink"
   xmlns:sodipodi="http://sodipodi.sourceforge.net/DTD/sodipodi-0.dtd"
   xmlns:inkscape="http://www.inkscape.org/namespaces/inkscape"
   width="250"
   height="60"
   id="svg4541"
   sodipodi:version="0.32"
   inkscape:version="0.45.1"
   sodipodi:docbase="/home/mark/Desktop"
   sodipodi:docname="individual.digit.svg"
   inkscape:output_extension="org.inkscape.output.svg.inkscape"
   version="1.0">
  <defs
     id="defs4543">
    <linearGradient
       inkscape:collect="always"
       id="linearGradient4650">
      <stop
         style="stop-color:#000000;stop-opacity:1;"
         offset="0"
         id="stop4652" />
      <stop
         style="stop-color:#000000;stop-opacity:0;"
         offset="1"
         id="stop4654" />
    </linearGradient>
    <linearGradient
       id="linearGradient4644">
      <stop
         style="stop-color:#00583f;stop-opacity:1"
         offset="0"
         id="stop4646" />
      <stop
         style="stop-color:#000000;stop-opacity:0;"
         offset="1"
         id="stop4648" />
    </linearGradient>
    <linearGradient
       inkscape:collect="always"
       xlink:href="#linearGradient32372"
       id="linearGradient26669"
       gradientUnits="userSpaceOnUse"
       gradientTransform="translate(-71.3516,40.5)"
       x1="232.10938"
       y1="214.39597"
       x2="232.34375"
       y2="238.59909" />
    <linearGradient
       id="linearGradient32372">
      <stop
         id="stop32374"
         offset="0"
         style="stop-color:#000000;stop-opacity:1;" />
      <stop
         id="stop32376"
         offset="1"
         style="stop-color:#000000;stop-opacity:0;" />
    </linearGradient>
    <linearGradient
       inkscape:collect="always"
       xlink:href="#linearGradient32372"
       id="linearGradient2488"
       gradientUnits="userSpaceOnUse"
       gradientTransform="translate(-71.3516,40.5)"
       x1="232.10938"
       y1="214.39597"
       x2="232.34375"
       y2="238.59909" />
    <linearGradient
       inkscape:collect="always"
       xlink:href="#linearGradient32372"
       id="linearGradient2544"
       gradientUnits="userSpaceOnUse"
       gradientTransform="translate(-71.3516,40.5)"
       x1="232.10938"
       y1="214.39597"
       x2="232.34375"
       y2="238.59909" />
    <linearGradient
       inkscape:collect="always"
       xlink:href="#linearGradient32372"
       id="linearGradient2593"
       gradientUnits="userSpaceOnUse"
       gradientTransform="translate(-71.3516,40.5)"
       x1="232.10938"
       y1="214.39597"
       x2="232.34375"
       y2="238.59909" />
    <linearGradient
       inkscape:collect="always"
       xlink:href="#linearGradient32372"
       id="linearGradient2608"
       gradientUnits="userSpaceOnUse"
       gradientTransform="translate(-71.3516,40.5)"
       x1="232.10938"
       y1="214.39597"
       x2="232.34375"
       y2="238.59909" />
    <linearGradient
       inkscape:collect="always"
       xlink:href="#linearGradient32372"
       id="linearGradient2623"
       gradientUnits="userSpaceOnUse"
       gradientTransform="matrix(1.265828,0,0,1.265828,-78.30335,-22.36038)"
       x1="232.10938"
       y1="214.39597"
       x2="232.34375"
       y2="238.59909" />
    <linearGradient
       inkscape:collect="always"
       xlink:href="#linearGradient4650"
       id="linearGradient4656"
       x1="-29.494484"
       y1="-84.554726"
       x2="-29.614061"
       y2="-50.625"
       gradientUnits="userSpaceOnUse" />
    <linearGradient
       inkscape:collect="always"
       xlink:href="#linearGradient32372"
       id="linearGradient4667"
       gradientUnits="userSpaceOnUse"
       gradientTransform="translate(-71.3516,40.5)"
       x1="232.10938"
       y1="214.39597"
       x2="232.34375"
       y2="238.59909" />
    <linearGradient
       inkscape:collect="always"
       xlink:href="#linearGradient4650"
       id="linearGradient5675"
       gradientUnits="userSpaceOnUse"
       x1="-29.494484"
       y1="-84.554726"
       x2="-29.614061"
       y2="-50.625" />
    <linearGradient
       inkscape:collect="always"
       xlink:href="#linearGradient32372"
       id="linearGradient5677"
       gradientUnits="userSpaceOnUse"
       gradientTransform="translate(-71.3516,40.5)"
       x1="232.10938"
       y1="214.39597"
       x2="232.34375"
       y2="238.59909" />
    <linearGradient
       inkscape:collect="always"
       xlink:href="#linearGradient32372"
       id="linearGradient2274"
       gradientUnits="userSpaceOnUse"
       gradientTransform="translate(-71.3516,40.5)"
       x1="232.10938"
       y1="214.39597"
       x2="232.34375"
       y2="238.59909" />
    <linearGradient
       inkscape:collect="always"
       xlink:href="#linearGradient32372"
       id="linearGradient3335"
       gradientUnits="userSpaceOnUse"
       gradientTransform="translate(-71.3516,40.5)"
       x1="232.10938"
       y1="214.39597"
       x2="232.34375"
       y2="238.59909" />
    <linearGradient
       inkscape:collect="always"
       xlink:href="#linearGradient32372"
       id="linearGradient3348"
       gradientUnits="userSpaceOnUse"
       gradientTransform="translate(-71.3516,40.5)"
       x1="232.10938"
       y1="214.39597"
       x2="232.34375"
       y2="238.59909" />
    <linearGradient
       inkscape:collect="always"
       xlink:href="#linearGradient32372"
       id="linearGradient3379"
       gradientUnits="userSpaceOnUse"
       gradientTransform="translate(-71.395795,40.5)"
       x1="227.29756"
       y1="16.568729"
       x2="227.29756"
       y2="44.32267" />
  </defs>
  <sodipodi:namedview
     id="base"
     pagecolor="#ffffff"
     bordercolor="#666666"
     borderopacity="1.0"
     gridtolerance="10000"
     guidetolerance="10"
     objecttolerance="10"
     inkscape:pageopacity="0.0"
     inkscape:pageshadow="2"
     inkscape:zoom="4"
     inkscape:cx="144.59338"
     inkscape:cy="8.7271542"
     inkscape:document-units="px"
     inkscape:current-layer="layer1"
     inkscape:window-width="1632"
     inkscape:window-height="973"
     inkscape:window-x="40"
     inkscape:window-y="0"
     width="250px"
     height="60px" />
  <metadata
     id="metadata4546">
    <rdf:RDF>
      <cc:Work
         rdf:about="">
        <dc:format>image/svg+xml</dc:format>
        <dc:type
           rdf:resource="http://purl.org/dc/dcmitype/StillImage" />
      </cc:Work>
    </rdf:RDF>
  </metadata>
  <g
     inkscape:label="Layer 1"
     inkscape:groupmode="layer"
     id="layer1"
     transform="translate(-9.7730207,-20.933582)">
    <g
       id="two"
       transform="translate(-69.029839,-9.0923825)">
      <g
         transform="matrix(1.0105263,0,0,1.0105263,43.954192,-223.49767)"
         id="twoFace">
        <path
           style="fill:#00bf00;fill-opacity:1;fill-rule:evenodd"
           d="M 107.86715,274.2241 L 118.13278,274.2241 L 118.13278,278.64597 L 101.17965,278.64597 L 101.17965,274.2241 L 109.69528,266.70847 C 110.45568,266.02099 111.01818,265.34911 111.38278,264.69285 C 111.74735,264.03661 111.92964,263.35432 111.92965,262.64597 C 111.92964,261.55224 111.55985,260.67203 110.82028,260.00535 C 110.0911,259.3387 109.11714,259.00537 107.8984,259.00535 C 106.96089,259.00537 105.93485,259.20849 104.82028,259.61472 C 103.70569,260.01058 102.51298,260.60432 101.24215,261.39597 L 101.24215,256.27097 C 102.59631,255.82308 103.93485,255.48454 105.25778,255.25535 C 106.58068,255.01579 107.87756,254.896 109.1484,254.89597 C 111.94005,254.896 114.10672,255.51058 115.6484,256.73972 C 117.20046,257.96891 117.97651,259.68245 117.97652,261.88035 C 117.97651,263.1512 117.64838,264.3387 116.99215,265.44285 C 116.33588,266.53661 114.95568,268.00536 112.85152,269.8491 L 107.86715,274.2241"
           id="twoForeground" />
        <path
           style="opacity:0.33000004;fill:url(#linearGradient2488);fill-opacity:1"
           d="M 107.86715,274.2241 L 118.13278,274.2241 L 118.13278,278.64597 L 101.17965,278.64597 L 101.17965,274.2241 L 109.69528,266.70847 C 110.45568,266.02099 111.01818,265.34911 111.38278,264.69285 C 111.74735,264.03661 111.92964,263.35432 111.92965,262.64597 C 111.92964,261.55224 111.55985,260.67203 110.82028,260.00535 C 110.0911,259.3387 109.11714,259.00537 107.8984,259.00535 C 106.96089,259.00537 105.93485,259.20849 104.82028,259.61472 C 103.70569,260.01058 102.51298,260.60432 101.24215,261.39597 L 101.24215,256.27097 C 102.59631,255.82308 103.93485,255.48454 105.25778,255.25535 C 106.58068,255.01579 107.87756,254.896 109.1484,254.89597 C 111.94005,254.896 114.10672,255.51058 115.6484,256.73972 C 117.20046,257.96891 117.97651,259.68245 117.97652,261.88035 C 117.97651,263.1512 117.64838,264.3387 116.99215,265.44285 C 116.33588,266.53661 114.95568,268.00536 112.85152,269.8491 L 107.86715,274.2241"
           id="twoGradient" />
      </g>
      <path
         d="M 144.26468,33.020752 L 144.26468,63.020752 L 165.26468,63.020752 L 165.26468,33.020752 L 144.26468,33.020752 z "
         id="twoBackground"
         style="fill:none;fill-opacity:1;stroke:none;stroke-width:1;stroke-linecap:butt;stroke-linejoin:miter;stroke-miterlimit:4;stroke-dashoffset:0;stroke-opacity:1" />
    </g>
    <g
       id="three"
       transform="translate(-48.409049,-4.9543775)">
      <g
         transform="matrix(0.9916073,0,0,0.9916073,24.422199,-222.99896)"
         id="threeFace">
        <path
           id="threeForeground"
           d="M 135.80465,266.06785 C 137.37755,266.47411 138.57026,267.18244 139.38278,268.19285 C 140.20567,269.19286 140.61713,270.4689 140.61715,272.02097 C 140.61713,274.33348 139.73171,276.09389 137.9609,277.30222 C 136.19005,278.50014 133.60672,279.0991 130.2109,279.0991 C 129.01298,279.0991 127.80985,279.00014 126.60152,278.80222 C 125.4036,278.61472 124.21611,278.32827 123.03902,277.94285 L 123.03902,273.30222 C 124.16402,273.86473 125.2786,274.29181 126.38278,274.58347 C 127.49735,274.86473 128.5911,275.00535 129.66402,275.00535 C 131.25776,275.00535 132.47651,274.72931 133.32028,274.17722 C 134.17443,273.62514 134.60151,272.83348 134.60152,271.80222 C 134.60151,270.73973 134.16401,269.93765 133.28902,269.39597 C 132.42443,268.8439 131.14318,268.56786 129.44528,268.56785 L 127.03902,268.56785 L 127.03902,264.69285 L 129.57028,264.69285 C 131.08068,264.69286 132.20568,264.45849 132.94528,263.98972 C 133.68485,263.51057 134.05464,262.78661 134.05465,261.81785 C 134.05464,260.92203 133.69526,260.22932 132.97652,259.73972 C 132.25776,259.25016 131.24214,259.00537 129.92965,259.00535 C 128.96089,259.00537 127.98173,259.11474 126.99215,259.33347 C 126.00256,259.55224 125.01819,259.87516 124.03902,260.30222 L 124.03902,255.89597 C 125.22652,255.56266 126.4036,255.31266 127.57028,255.14597 C 128.73693,254.97933 129.88277,254.896 131.00778,254.89597 C 134.03901,254.896 136.30463,255.396 137.80465,256.39597 C 139.31505,257.38558 140.07026,258.88037 140.07028,260.88035 C 140.07026,262.24495 139.71088,263.36474 138.99215,264.23972 C 138.27338,265.10432 137.21088,265.71369 135.80465,266.06785"
           style="fill:#ffcc00;fill-opacity:1;fill-rule:evenodd" />
        <path
           id="threeGradient"
           d="M 135.80465,266.06785 C 137.37755,266.47411 138.57026,267.18244 139.38278,268.19285 C 140.20567,269.19286 140.61713,270.4689 140.61715,272.02097 C 140.61713,274.33348 139.73171,276.09389 137.9609,277.30222 C 136.19005,278.50014 133.60672,279.0991 130.2109,279.0991 C 129.01298,279.0991 127.80985,279.00014 126.60152,278.80222 C 125.4036,278.61472 124.21611,278.32827 123.03902,277.94285 L 123.03902,273.30222 C 124.16402,273.86473 125.2786,274.29181 126.38278,274.58347 C 127.49735,274.86473 128.5911,275.00535 129.66402,275.00535 C 131.25776,275.00535 132.47651,274.72931 133.32028,274.17722 C 134.17443,273.62514 134.60151,272.83348 134.60152,271.80222 C 134.60151,270.73973 134.16401,269.93765 133.28902,269.39597 C 132.42443,268.8439 131.14318,268.56786 129.44528,268.56785 L 127.03902,268.56785 L 127.03902,264.69285 L 129.57028,264.69285 C 131.08068,264.69286 132.20568,264.45849 132.94528,263.98972 C 133.68485,263.51057 134.05464,262.78661 134.05465,261.81785 C 134.05464,260.92203 133.69526,260.22932 132.97652,259.73972 C 132.25776,259.25016 131.24214,259.00537 129.92965,259.00535 C 128.96089,259.00537 127.98173,259.11474 126.99215,259.33347 C 126.00256,259.55224 125.01819,259.87516 124.03902,260.30222 L 124.03902,255.89597 C 125.22652,255.56266 126.4036,255.31266 127.57028,255.14597 C 128.73693,254.97933 129.88277,254.896 131.00778,254.89597 C 134.03901,254.896 136.30463,255.396 137.80465,256.39597 C 139.31505,257.38558 140.07026,258.88037 140.07028,260.88035 C 140.07026,262.24495 139.71088,263.36474 138.99215,264.23972 C 138.27338,265.10432 137.21088,265.71369 135.80465,266.06785"
           style="opacity:0.33000004;fill:url(#linearGradient2544);fill-opacity:1" />
      </g>
      <path
         d="M 144.64389,28.882747 L 144.64389,58.882747 L 165.64389,58.882747 L 165.64389,28.882747 L 144.64389,28.882747 z "
         id="threeBackground"
         style="fill:none;fill-opacity:1;stroke:none;stroke-width:1;stroke-linecap:butt;stroke-linejoin:miter;stroke-miterlimit:4;stroke-dashoffset:0;stroke-opacity:1" />
    </g>
    <g
       id="four"
       transform="translate(-50.262039,-4.9974975)">
      <g
         transform="matrix(1.0072636,0,0,1.0288013,22.610766,-232.87047)"
         id="fourFace">
        <path
           d="M 154.92965,260.27097 L 148.3359,270.0366 L 154.92965,270.0366 L 154.92965,260.27097 M 153.92965,255.31785 L 160.61715,255.31785 L 160.61715,270.0366 L 163.94528,270.0366 L 163.94528,274.39597 L 160.61715,274.39597 L 160.61715,278.64597 L 154.92965,278.64597 L 154.92965,274.39597 L 144.5859,274.39597 L 144.5859,269.23972 L 153.92965,255.31785"
           style="fill:#a02786;fill-opacity:1;fill-rule:evenodd"
           id="fourForeground" />
        <path
           d="M 154.92965,260.27097 L 148.3359,270.0366 L 154.92965,270.0366 L 154.92965,260.27097 M 153.92965,255.31785 L 160.61715,255.31785 L 160.61715,270.0366 L 163.94528,270.0366 L 163.94528,274.39597 L 160.61715,274.39597 L 160.61715,278.64597 L 154.92965,278.64597 L 154.92965,274.39597 L 144.5859,274.39597 L 144.5859,269.23972 L 153.92965,255.31785"
           style="opacity:0.33000004;fill:url(#linearGradient2593);fill-opacity:1"
           id="fourGradient" />
      </g>
      <path
         d="M 167.49688,28.925867 L 167.49688,58.925867 L 188.49688,58.925867 L 188.49688,28.925867 L 167.49688,28.925867 z "
         id="fourBackground"
         style="fill:none;fill-opacity:1;stroke:none;stroke-width:1;stroke-linecap:butt;stroke-linejoin:miter;stroke-miterlimit:4;stroke-dashoffset:0;stroke-opacity:1" />
    </g>
    <g
       id="five"
       transform="translate(-52.407919,-5.0253085)">
      <g
         transform="matrix(1.0091984,0,0,1.0091984,22.869475,-227.82881)"
         id="fiveFace">
        <path
           id="fiveForeground"
           d="M 168.78902,255.31785 L 183.74215,255.31785 L 183.74215,259.73972 L 173.5859,259.73972 L 173.5859,263.3491 C 174.04422,263.22411 174.50256,263.13036 174.9609,263.06785 C 175.42964,262.99495 175.91401,262.95849 176.41402,262.95847 C 179.25776,262.95849 181.4713,263.67203 183.05465,265.0991 C 184.63796,266.51578 185.42963,268.49494 185.42965,271.0366 C 185.42963,273.55744 184.56505,275.53139 182.8359,276.95847 C 181.11713,278.38556 178.72651,279.0991 175.66402,279.0991 C 174.3411,279.0991 173.0286,278.96889 171.72652,278.70847 C 170.43485,278.45847 169.1484,278.07306 167.86715,277.55222 L 167.86715,272.81785 C 169.13798,273.54702 170.3411,274.09389 171.47652,274.45847 C 172.62235,274.82306 173.70048,275.00535 174.7109,275.00535 C 176.16922,275.00535 177.31505,274.65119 178.1484,273.94285 C 178.99214,273.2241 179.41401,272.25535 179.41402,271.0366 C 179.41401,269.80744 178.99214,268.83869 178.1484,268.13035 C 177.31505,267.42203 176.16922,267.06786 174.7109,267.06785 C 173.84631,267.06786 172.92443,267.18244 171.94528,267.4116 C 170.9661,267.63036 169.91402,267.97411 168.78902,268.44285 L 168.78902,255.31785"
           style="fill:#ff0000;fill-opacity:1;fill-rule:evenodd" />
        <path
           id="fiveGradient"
           d="M 168.78902,255.31785 L 183.74215,255.31785 L 183.74215,259.73972 L 173.5859,259.73972 L 173.5859,263.3491 C 174.04422,263.22411 174.50256,263.13036 174.9609,263.06785 C 175.42964,262.99495 175.91401,262.95849 176.41402,262.95847 C 179.25776,262.95849 181.4713,263.67203 183.05465,265.0991 C 184.63796,266.51578 185.42963,268.49494 185.42965,271.0366 C 185.42963,273.55744 184.56505,275.53139 182.8359,276.95847 C 181.11713,278.38556 178.72651,279.0991 175.66402,279.0991 C 174.3411,279.0991 173.0286,278.96889 171.72652,278.70847 C 170.43485,278.45847 169.1484,278.07306 167.86715,277.55222 L 167.86715,272.81785 C 169.13798,273.54702 170.3411,274.09389 171.47652,274.45847 C 172.62235,274.82306 173.70048,275.00535 174.7109,275.00535 C 176.16922,275.00535 177.31505,274.65119 178.1484,273.94285 C 178.99214,273.2241 179.41401,272.25535 179.41402,271.0366 C 179.41401,269.80744 178.99214,268.83869 178.1484,268.13035 C 177.31505,267.42203 176.16922,267.06786 174.7109,267.06785 C 173.84631,267.06786 172.92443,267.18244 171.94528,267.4116 C 170.9661,267.63036 169.91402,267.97411 168.78902,268.44285 L 168.78902,255.31785"
           style="opacity:0.33000004;fill:url(#linearGradient4667);fill-opacity:1" />
      </g>
      <path
         d="M 190.64276,28.953678 L 190.64276,58.95352 L 211.64276,58.95352 L 211.64276,28.953678 L 190.64276,28.953678 z "
         id="fiveBackground"
         style="fill:none;fill-opacity:1;stroke:none;stroke-width:1;stroke-linecap:butt;stroke-linejoin:miter;stroke-miterlimit:4;stroke-dashoffset:0;stroke-opacity:1" />
    </g>
    <g
       id="six"
       transform="translate(-56.093269,-4.9497475)">
      <g
         transform="matrix(0.9928893,0,0,0.9928893,28.328495,-223.2641)"
         id="sixFace">
        <path
           d="M 199.22652,267.13035 C 198.17443,267.13036 197.38277,267.47411 196.85152,268.1616 C 196.33068,268.83869 196.07027,269.85952 196.07028,271.2241 C 196.07027,272.58869 196.33068,273.61473 196.85152,274.30222 C 197.38277,274.97931 198.17443,275.31785 199.22652,275.31785 C 200.28901,275.31785 201.08068,274.97931 201.60152,274.30222 C 202.13276,273.61473 202.39839,272.58869 202.3984,271.2241 C 202.39839,269.85952 202.13276,268.83869 201.60152,268.1616 C 201.08068,267.47411 200.28901,267.13036 199.22652,267.13035 M 206.66402,255.92722 L 206.66402,260.23972 C 205.67442,259.77099 204.74213,259.42724 203.86715,259.20847 C 202.99213,258.97933 202.13797,258.86474 201.30465,258.86472 C 199.51297,258.86474 198.11714,259.36474 197.11715,260.36472 C 196.11714,261.35432 195.53381,262.82828 195.36715,264.7866 C 196.05464,264.2762 196.79943,263.89599 197.60152,263.64597 C 198.4036,263.38557 199.2786,263.25536 200.22652,263.25535 C 202.61193,263.25536 204.5338,263.95328 205.99215,265.3491 C 207.46088,266.74494 208.19525,268.57307 208.19528,270.83347 C 208.19525,273.33348 207.37755,275.33868 205.74215,276.8491 C 204.10672,278.3491 201.91401,279.0991 199.16402,279.0991 C 196.13277,279.0991 193.78381,278.07827 192.11715,276.0366 C 190.4609,273.98452 189.63277,271.07827 189.63278,267.31785 C 189.63277,263.4637 190.60152,260.43766 192.53902,258.23972 C 194.48693,256.03141 197.1536,254.92725 200.53902,254.92722 C 201.61193,254.92725 202.65359,255.01058 203.66402,255.17722 C 204.67442,255.34391 205.67442,255.59391 206.66402,255.92722"
           style="fill:#8c0000;fill-opacity:1;fill-rule:evenodd"
           id="sixForeground" />
        <path
           d="M 199.22652,267.13035 C 198.17443,267.13036 197.38277,267.47411 196.85152,268.1616 C 196.33068,268.83869 196.07027,269.85952 196.07028,271.2241 C 196.07027,272.58869 196.33068,273.61473 196.85152,274.30222 C 197.38277,274.97931 198.17443,275.31785 199.22652,275.31785 C 200.28901,275.31785 201.08068,274.97931 201.60152,274.30222 C 202.13276,273.61473 202.39839,272.58869 202.3984,271.2241 C 202.39839,269.85952 202.13276,268.83869 201.60152,268.1616 C 201.08068,267.47411 200.28901,267.13036 199.22652,267.13035 M 206.66402,255.92722 L 206.66402,260.23972 C 205.67442,259.77099 204.74213,259.42724 203.86715,259.20847 C 202.99213,258.97933 202.13797,258.86474 201.30465,258.86472 C 199.51297,258.86474 198.11714,259.36474 197.11715,260.36472 C 196.11714,261.35432 195.53381,262.82828 195.36715,264.7866 C 196.05464,264.2762 196.79943,263.89599 197.60152,263.64597 C 198.4036,263.38557 199.2786,263.25536 200.22652,263.25535 C 202.61193,263.25536 204.5338,263.95328 205.99215,265.3491 C 207.46088,266.74494 208.19525,268.57307 208.19528,270.83347 C 208.19525,273.33348 207.37755,275.33868 205.74215,276.8491 C 204.10672,278.3491 201.91401,279.0991 199.16402,279.0991 C 196.13277,279.0991 193.78381,278.07827 192.11715,276.0366 C 190.4609,273.98452 189.63277,271.07827 189.63278,267.31785 C 189.63277,263.4637 190.60152,260.43766 192.53902,258.23972 C 194.48693,256.03141 197.1536,254.92725 200.53902,254.92722 C 201.61193,254.92725 202.65359,255.01058 203.66402,255.17722 C 204.67442,255.34391 205.67442,255.59391 206.66402,255.92722"
           style="opacity:0.33000004;fill:url(#linearGradient2608);fill-opacity:1"
           id="sixGradient" />
      </g>
      <path
         d="M 215.32811,28.878117 L 215.32811,58.878117 L 236.32811,58.878117 L 236.32811,28.878117 L 215.32811,28.878117 z "
         id="sixBackground"
         style="fill:none;fill-opacity:1;stroke:none;stroke-width:1;stroke-linecap:butt;stroke-linejoin:miter;stroke-miterlimit:4;stroke-dashoffset:0;stroke-opacity:1" />
    </g>
    <g
       id="seven"
       transform="translate(-59.350219,-5.0194975)">
      <g
         transform="matrix(0.8127496,0,0,0.8127496,13.066972,-172.99971)"
         id="sevenFace">
        <path
           id="sevenForeground"
           d="M 280.49954,249.56207 L 302.75043,249.56207 L 302.75043,253.85402 L 291.23931,279.09146 L 283.82234,279.09146 L 294.72034,255.1594 L 280.49954,255.1594 L 280.49954,249.56207"
           style="fill:#ff7e00;fill-opacity:1;fill-rule:evenodd" />
        <path
           id="sevenGradient"
           d="M 280.49954,249.56207 L 302.75043,249.56207 L 302.75043,253.85402 L 291.23931,279.09146 L 283.82234,279.09146 L 294.72034,255.1594 L 280.49954,255.1594 L 280.49954,249.56207"
           style="opacity:0.33000004;fill:url(#linearGradient2623);fill-opacity:1" />
      </g>
      <path
         d="M 239.58506,28.947867 L 239.58506,58.947867 L 260.58506,58.947867 L 260.58506,28.947867 L 239.58506,28.947867 z "
         id="sevenBackground"
         style="fill:none;fill-opacity:1;stroke:none;stroke-width:1;stroke-linecap:butt;stroke-linejoin:miter;stroke-miterlimit:4;stroke-dashoffset:0;stroke-opacity:1" />
    </g>
    <g
       id="eight"
       transform="translate(-60.762919,-4.9817455)">
      <g
         transform="matrix(0.9916073,0,0,0.9916073,31.21185,-222.8743)"
         id="eightFace">
        <path
           d="M 243.35152,268.20847 C 242.22651,268.20848 241.36193,268.51577 240.75778,269.13035 C 240.1536,269.74494 239.85152,270.62515 239.85152,271.77097 C 239.85152,272.91681 240.1536,273.79702 240.75778,274.4116 C 241.36193,275.01577 242.22651,275.31785 243.35152,275.31785 C 244.4661,275.31785 245.32026,275.01577 245.91402,274.4116 C 246.50776,273.79702 246.80464,272.91681 246.80465,271.77097 C 246.80464,270.61473 246.50776,269.73452 245.91402,269.13035 C 245.32026,268.51577 244.4661,268.20848 243.35152,268.20847 M 238.9609,266.2241 C 237.54423,265.79703 236.47652,265.14078 235.75778,264.25535 C 235.03902,263.36995 234.67965,262.26578 234.67965,260.94285 C 234.67965,258.97412 235.41402,257.47412 236.88278,256.44285 C 238.35152,255.41162 240.50777,254.896 243.35152,254.89597 C 246.17443,254.896 248.32026,255.41162 249.78902,256.44285 C 251.25776,257.4637 251.99213,258.9637 251.99215,260.94285 C 251.99213,262.26578 251.62755,263.36995 250.8984,264.25535 C 250.17963,265.14078 249.11192,265.79703 247.69528,266.2241 C 249.27859,266.66161 250.4713,267.37515 251.2734,268.36472 C 252.08588,269.3439 252.49213,270.58348 252.49215,272.08347 C 252.49213,274.39598 251.7213,276.14598 250.17965,277.33347 C 248.64838,278.51056 246.37234,279.0991 243.35152,279.0991 C 240.32027,279.0991 238.0286,278.51056 236.47652,277.33347 C 234.93486,276.14598 234.16402,274.39598 234.16402,272.08347 C 234.16402,270.58348 234.56506,269.3439 235.36715,268.36472 C 236.17965,267.37515 237.37756,266.66161 238.9609,266.2241 M 240.36715,261.55222 C 240.36714,262.47932 240.62235,263.19286 241.13278,263.69285 C 241.6536,264.19286 242.39318,264.44286 243.35152,264.44285 C 244.28901,264.44286 245.01297,264.19286 245.5234,263.69285 C 246.0338,263.19286 246.28901,262.47932 246.28902,261.55222 C 246.28901,260.62516 246.0338,259.91683 245.5234,259.42722 C 245.01297,258.92724 244.28901,258.67724 243.35152,258.67722 C 242.39318,258.67724 241.6536,258.92724 241.13278,259.42722 C 240.62235,259.92724 240.36714,260.63557 240.36715,261.55222"
           style="fill:#323232;fill-opacity:1;fill-rule:evenodd"
           id="eightForeground" />
        <path
           d="M 243.35152,268.20847 C 242.22651,268.20848 241.36193,268.51577 240.75778,269.13035 C 240.1536,269.74494 239.85152,270.62515 239.85152,271.77097 C 239.85152,272.91681 240.1536,273.79702 240.75778,274.4116 C 241.36193,275.01577 242.22651,275.31785 243.35152,275.31785 C 244.4661,275.31785 245.32026,275.01577 245.91402,274.4116 C 246.50776,273.79702 246.80464,272.91681 246.80465,271.77097 C 246.80464,270.61473 246.50776,269.73452 245.91402,269.13035 C 245.32026,268.51577 244.4661,268.20848 243.35152,268.20847 M 238.9609,266.2241 C 237.54423,265.79703 236.47652,265.14078 235.75778,264.25535 C 235.03902,263.36995 234.67965,262.26578 234.67965,260.94285 C 234.67965,258.97412 235.41402,257.47412 236.88278,256.44285 C 238.35152,255.41162 240.50777,254.896 243.35152,254.89597 C 246.17443,254.896 248.32026,255.41162 249.78902,256.44285 C 251.25776,257.4637 251.99213,258.9637 251.99215,260.94285 C 251.99213,262.26578 251.62755,263.36995 250.8984,264.25535 C 250.17963,265.14078 249.11192,265.79703 247.69528,266.2241 C 249.27859,266.66161 250.4713,267.37515 251.2734,268.36472 C 252.08588,269.3439 252.49213,270.58348 252.49215,272.08347 C 252.49213,274.39598 251.7213,276.14598 250.17965,277.33347 C 248.64838,278.51056 246.37234,279.0991 243.35152,279.0991 C 240.32027,279.0991 238.0286,278.51056 236.47652,277.33347 C 234.93486,276.14598 234.16402,274.39598 234.16402,272.08347 C 234.16402,270.58348 234.56506,269.3439 235.36715,268.36472 C 236.17965,267.37515 237.37756,266.66161 238.9609,266.2241 M 240.36715,261.55222 C 240.36714,262.47932 240.62235,263.19286 241.13278,263.69285 C 241.6536,264.19286 242.39318,264.44286 243.35152,264.44285 C 244.28901,264.44286 245.01297,264.19286 245.5234,263.69285 C 246.0338,263.19286 246.28901,262.47932 246.28902,261.55222 C 246.28901,260.62516 246.0338,259.91683 245.5234,259.42722 C 245.01297,258.92724 244.28901,258.67724 243.35152,258.67722 C 242.39318,258.67724 241.6536,258.92724 241.13278,259.42722 C 240.62235,259.92724 240.36714,260.63557 240.36715,261.55222"
           style="opacity:0.33000004;fill:url(#linearGradient5677);fill-opacity:1"
           id="eightGradient" />
      </g>
      <path
         d="M 261.99776,28.910115 L 261.99776,58.910115 L 282.99776,58.910115 L 282.99776,28.910115 L 261.99776,28.910115 z "
         id="eightBackground"
         style="fill:none;fill-opacity:1;stroke:none;stroke-width:1;stroke-linecap:butt;stroke-linejoin:miter;stroke-miterlimit:4;stroke-dashoffset:0;stroke-opacity:1" />
    </g>
    <flowRoot
       xml:space="preserve"
       id="nameOfFontUsed"
       style="font-family:DejaVu Sans"
       transform="translate(-0.3535543,199.05056)"><flowRegion
         id="flowRegion6997"><rect
           id="rect6999"
           width="82.878677"
           height="23.872583"
           x="13"
           y="-144.5"
           style="font-family:DejaVu Sans" /></flowRegion><flowPara
         id="flowPara5671">DejaVu Sans</flowPara></flowRoot>    <g
       id="nine"
       transform="translate(-63.013549,-5.0122015)">
      <g
         transform="matrix(0.7391723,0,0,0.7391723,317.06889,91.245049)"
         id="nineFace">
        <path
           d="M -29.21875,-83.09375 C -32.90007,-83.093719 -35.83366,-82.092094 -38.03125,-80.0625 C -40.21485,-78.032851 -41.312499,-75.310851 -41.3125,-71.9375 C -41.3125,-68.88605 -40.334629,-66.438138 -38.375,-64.5625 C -36.40137,-62.700834 -33.799159,-61.749989 -30.59375,-61.75 C -29.334,-61.74999 -28.171571,-61.931303 -27.09375,-62.28125 C -26.01597,-62.631174 -24.98309,-63.175117 -24.03125,-63.875 C -24.26922,-61.243479 -25.06252,-59.249991 -26.40625,-57.90625 C -27.75001,-56.576492 -29.623711,-55.906244 -32.03125,-55.90625 C -33.17905,-55.906245 -34.355479,-56.049799 -35.53125,-56.34375 C -36.70704,-56.651687 -37.930989,-57.116855 -39.21875,-57.71875 L -39.21875,-51.90625 C -37.93099,-51.472331 -36.625008,-51.14746 -35.28125,-50.9375 C -33.93751,-50.713542 -32.532229,-50.625 -31.0625,-50.625 C -26.49936,-50.625001 -22.898779,-52.077798 -20.28125,-55.03125 C -17.66376,-57.998691 -16.375031,-62.102205 -16.375,-67.28125 C -16.37503,-72.320291 -17.4792,-76.211241 -19.71875,-78.96875 C -21.95836,-81.726206 -25.131529,-83.093721 -29.21875,-83.09375 z M -29.25,-78.03125 C -27.83628,-78.031223 -26.776389,-77.548804 -26.0625,-76.625 C -25.34866,-75.701147 -25.00002,-74.319641 -25,-72.5 C -25.00002,-70.666322 -25.348659,-69.298813 -26.0625,-68.375 C -26.77639,-67.465153 -27.836279,-66.999987 -29.25,-67 C -30.66375,-66.999984 -31.723641,-67.465156 -32.4375,-68.375 C -33.15138,-69.29881 -33.50001,-70.666325 -33.5,-72.5 C -33.50001,-74.319638 -33.151381,-75.70115 -32.4375,-76.625 C -31.72364,-77.548801 -30.663749,-78.031226 -29.25,-78.03125 z "
           id="nineForeground"
           style="fill:#b3925d;fill-opacity:1;fill-rule:evenodd" />
        <path
           d="M -29.21875,-83.09375 C -32.90007,-83.093719 -35.83366,-82.092094 -38.03125,-80.0625 C -40.21485,-78.032851 -41.312499,-75.310851 -41.3125,-71.9375 C -41.3125,-68.88605 -40.334629,-66.438138 -38.375,-64.5625 C -36.40137,-62.700834 -33.799159,-61.749989 -30.59375,-61.75 C -29.334,-61.74999 -28.171571,-61.931303 -27.09375,-62.28125 C -26.01597,-62.631174 -24.98309,-63.175117 -24.03125,-63.875 C -24.26922,-61.243479 -25.06252,-59.249991 -26.40625,-57.90625 C -27.75001,-56.576492 -29.623711,-55.906244 -32.03125,-55.90625 C -33.17905,-55.906245 -34.355479,-56.049799 -35.53125,-56.34375 C -36.70704,-56.651687 -37.930989,-57.116855 -39.21875,-57.71875 L -39.21875,-51.90625 C -37.93099,-51.472331 -36.625008,-51.14746 -35.28125,-50.9375 C -33.93751,-50.713542 -32.532229,-50.625 -31.0625,-50.625 C -26.49936,-50.625001 -22.898779,-52.077798 -20.28125,-55.03125 C -17.66376,-57.998691 -16.375031,-62.102205 -16.375,-67.28125 C -16.37503,-72.320291 -17.4792,-76.211241 -19.71875,-78.96875 C -21.95836,-81.726206 -25.131529,-83.093721 -29.21875,-83.09375 z M -29.25,-78.03125 C -27.83628,-78.031223 -26.776389,-77.548804 -26.0625,-76.625 C -25.34866,-75.701147 -25.00002,-74.319641 -25,-72.5 C -25.00002,-70.666322 -25.348659,-69.298813 -26.0625,-68.375 C -26.77639,-67.465153 -27.836279,-66.999987 -29.25,-67 C -30.66375,-66.999984 -31.723641,-67.465156 -32.4375,-68.375 C -33.15138,-69.29881 -33.50001,-70.666325 -33.5,-72.5 C -33.50001,-74.319638 -33.151381,-75.70115 -32.4375,-76.625 C -31.72364,-77.548801 -30.663749,-78.031226 -29.25,-78.03125 z "
           id="nineGradient"
           style="opacity:0.33000004;fill:url(#linearGradient4656);fill-opacity:1" />
      </g>
      <path
         d="M 285.24839,28.940571 L 285.24839,58.940571 L 306.24839,58.940571 L 306.24839,28.940571 L 285.24839,28.940571 z "
         id="nineBackground"
         style="fill:none;fill-opacity:1;stroke:none;stroke-width:1;stroke-linecap:butt;stroke-linejoin:miter;stroke-miterlimit:4;stroke-dashoffset:0;stroke-opacity:1" />
    </g>
    <g
       id="blank"
       transform="translate(-44.790674,-5.0260415)">
      <g
         transform="matrix(0.7391665,0,0,0.7391665,103.98156,75.323209)"
         id="blankFace">
        <rect
           style="fill:none;fill-opacity:1;fill-rule:evenodd"
           id="blankForeground"
           width="25.813"
           height="32.469002"
           x="-62.226982"
           y="-61.535416" />
        <rect
           style="fill:none;fill-opacity:1;fill-rule:evenodd"
           id="blankGradient"
           width="25.813"
           height="32.469002"
           x="-62.226982"
           y="-61.535416" />
      </g>
      <path
         d="M 57.025515,28.954411 L 57.025515,58.954411 L 78.025515,58.954411 L 78.025515,28.954411 L 57.025515,28.954411 z "
         id="blankBackground"
         style="fill:none;fill-opacity:1;stroke:none;stroke-width:1;stroke-linecap:butt;stroke-linejoin:miter;stroke-miterlimit:4;stroke-dashoffset:0;stroke-opacity:1" />
    </g>
    <g
       id="zero"
       transform="translate(-45.549408,-4.9971015)">
      <g
         transform="matrix(0.7384615,0,0,0.7384615,154.54578,91.193963)"
         id="zeroFace">
        <path
           d="M -88.34375,-83.125 C -92.472993,-83.124968 -95.666673,-81.733696 -97.90625,-78.90625 C -100.14584,-76.092748 -101.28125,-72.082013 -101.28125,-66.875 C -101.28125,-61.681956 -100.14583,-57.671217 -97.90625,-54.84375 C -95.666674,-52.030273 -92.472991,-50.625 -88.34375,-50.625 C -84.228535,-50.625001 -81.052104,-52.030272 -78.8125,-54.84375 C -76.572943,-57.671218 -75.468776,-61.681959 -75.46875,-66.875 C -75.468777,-72.08201 -76.572942,-76.092751 -78.8125,-78.90625 C -81.052105,-81.733693 -84.228533,-83.124971 -88.34375,-83.125 z M -88.34375,-77.625 C -86.60809,-77.624974 -85.384131,-76.797178 -84.65625,-75.1875 C -83.914407,-73.591775 -83.562518,-70.856753 -83.5625,-66.9375 C -83.562519,-62.976225 -83.914406,-60.186188 -84.65625,-58.5625 C -85.39813,-56.938796 -86.622085,-56.124994 -88.34375,-56.125 C -90.07944,-56.124995 -91.320649,-56.938795 -92.0625,-58.5625 C -92.804372,-60.186189 -93.187509,-62.976228 -93.1875,-66.9375 C -93.18751,-70.856751 -92.804371,-73.591778 -92.0625,-75.1875 C -91.32065,-76.797175 -90.079438,-77.624977 -88.34375,-77.625 z "
           id="zeroForeground"
           style="fill:#00ff00;fill-opacity:1;fill-rule:evenodd" />
        <path
           d="M -88.34375,-83.125 C -92.472993,-83.124968 -95.666673,-81.733696 -97.90625,-78.90625 C -100.14584,-76.092748 -101.28125,-72.082013 -101.28125,-66.875 C -101.28125,-61.681956 -100.14583,-57.671217 -97.90625,-54.84375 C -95.666674,-52.030273 -92.472991,-50.625 -88.34375,-50.625 C -84.228535,-50.625001 -81.052104,-52.030272 -78.8125,-54.84375 C -76.572943,-57.671218 -75.468776,-61.681959 -75.46875,-66.875 C -75.468777,-72.08201 -76.572942,-76.092751 -78.8125,-78.90625 C -81.052105,-81.733693 -84.228533,-83.124971 -88.34375,-83.125 z M -88.34375,-77.625 C -86.60809,-77.624974 -85.384131,-76.797178 -84.65625,-75.1875 C -83.914407,-73.591775 -83.562518,-70.856753 -83.5625,-66.9375 C -83.562519,-62.976225 -83.914406,-60.186188 -84.65625,-58.5625 C -85.39813,-56.938796 -86.622085,-56.124994 -88.34375,-56.125 C -90.07944,-56.124995 -91.320649,-56.938795 -92.0625,-58.5625 C -92.804372,-60.186189 -93.187509,-62.976228 -93.1875,-66.9375 C -93.18751,-70.856751 -92.804371,-73.591778 -92.0625,-75.1875 C -91.32065,-76.797175 -90.079438,-77.624977 -88.34375,-77.625 z "
           id="zeroGradient"
           style="opacity:0.33000004;fill:url(#linearGradient5675);fill-opacity:1" />
      </g>
      <path
         d="M 78.784249,28.925471 L 78.784249,58.925471 L 99.784249,58.925471 L 99.784249,28.925471 L 78.784249,28.925471 z "
         id="zeroBackground"
         style="fill:none;fill-opacity:1;stroke:none;stroke-width:1;stroke-linecap:butt;stroke-linejoin:miter;stroke-miterlimit:4;stroke-dashoffset:0;stroke-opacity:1" />
    </g>
    <g
       id="one"
       transform="translate(-50.505289,-4.9738805)">
      <g
         transform="matrix(1.006275,0,0,1.0288013,26.45212,-232.76514)"
         id="oneFace">
        <path
           style="fill:#0000ff;fill-opacity:1;fill-rule:evenodd"
           d="M 80.1484,274.48972 L 85.4609,274.48972 L 85.4609,259.4116 L 80.00778,260.5366 L 80.00778,256.44285 L 85.42965,255.31785 L 91.1484,255.31785 L 91.1484,274.48972 L 96.4609,274.48972 L 96.4609,278.64597 L 80.1484,278.64597 L 80.1484,274.48972"
           id="oneForeground" />
        <path
           style="opacity:0.33000004;fill:url(#linearGradient26669);fill-opacity:1"
           d="M 80.1484,274.48972 L 85.4609,274.48972 L 85.4609,259.4116 L 80.00778,260.5366 L 80.00778,256.44285 L 85.42965,255.31785 L 91.1484,255.31785 L 91.1484,274.48972 L 96.4609,274.48972 L 96.4609,278.64597 L 80.1484,278.64597 L 80.1484,274.48972"
           id="oneGradient" />
      </g>
      <path
         style="fill:none;fill-opacity:1;stroke:none;stroke-width:1;stroke-linecap:butt;stroke-linejoin:miter;stroke-miterlimit:4;stroke-dashoffset:0;stroke-opacity:1"
         id="oneBackground"
         d="M 104.74013,28.90225 L 104.74013,58.90225 L 125.74013,58.90225 L 125.74013,28.90225 L 104.74013,28.90225 z " />
    </g>
    <g
       id="comma">
      <path
         style="opacity:0.33000004;fill:url(#linearGradient3379);fill-opacity:1"
         d="M 140.21134,71.88068 L 146.01213,71.88068 L 146.01213,76.795231 L 142.03215,82.805485 L 138.60002,82.805485 L 140.21134,76.795231 L 140.21134,71.88068"
         id="commaGradient" />
      <path
         d="M 136.42223,53.031488 L 136.42223,83.031488 L 148.42223,83.031488 L 148.42223,53.031488 L 136.42223,53.031488 z "
         id="commaBackground"
         style="fill:none;fill-opacity:1;stroke:none;stroke-width:1;stroke-linecap:butt;stroke-linejoin:miter;stroke-miterlimit:4;stroke-dashoffset:0;stroke-opacity:1" />
      <path
         style="fill:#00b377"
         d="M 140.21134,71.88068 L 146.01213,71.88068 L 146.01213,76.795231 L 142.03215,82.805485 L 138.60002,82.805485 L 140.21134,76.795231 L 140.21134,71.88068"
         id="commaForeground" />
    </g>
    <g
       id="colon">
      <path
         d="M 152.99332,60.069646 L 158.81021,60.069646 L 158.81021,66.305488 L 152.99332,66.305488 L 152.99332,60.069646 M 152.99332,71.880679 L 158.81021,71.880679 L 158.81021,78.116518 L 152.99332,78.116518 L 152.99332,71.880679"
         style="fill:#0000ff"
         id="colonForeground" />
      <path
         d="M 152.99332,60.069645 L 158.81021,60.069645 L 158.81021,66.305485 L 152.99332,66.305485 L 152.99332,60.069645 M 152.99332,71.88068 L 158.81021,71.88068 L 158.81021,78.11652 L 152.99332,78.11652 L 152.99332,71.88068"
         style="opacity:0.33000004;fill:url(#linearGradient3379);fill-opacity:1"
         id="colonGradient" />
      <path
         style="fill:none;fill-opacity:1;stroke:none;stroke-width:1;stroke-linecap:butt;stroke-linejoin:miter;stroke-miterlimit:4;stroke-dashoffset:0;stroke-opacity:1"
         id="colonBackground"
         d="M 149.27302,53.031488 L 149.27302,83.031488 L 161.27302,83.031488 L 161.27302,53.031488 L 149.27302,53.031488 z " />
    </g>
    <g
       id="semicolon">
      <path
         d="M 166.18595,71.88068 L 172.00285,71.88068 L 172.00285,76.795231 L 168.00675,82.805485 L 164.57463,82.805485 L 166.18595,76.795231 L 166.18595,71.88068 M 166.18595,60.069645 L 172.00285,60.069645 L 172.00285,66.305485 L 166.18595,66.305485 L 166.18595,60.069645"
         style="fill:#ffeb55"
         id="semicolonForeground" />
      <path
         style="fill:none;fill-opacity:1;stroke:none;stroke-width:1;stroke-linecap:butt;stroke-linejoin:miter;stroke-miterlimit:4;stroke-dashoffset:0;stroke-opacity:1"
         id="semicolonBackground"
         d="M 162.47802,53.031488 L 162.47802,83.031488 L 174.47802,83.031488 L 174.47802,53.031488 L 162.47802,53.031488 z " />
      <path
         d="M 166.18595,71.88068 L 172.00285,71.88068 L 172.00285,76.795231 L 168.00675,82.805485 L 164.57463,82.805485 L 166.18595,76.795231 L 166.18595,71.88068 M 166.18595,60.069645 L 172.00285,60.069645 L 172.00285,66.305485 L 166.18595,66.305485 L 166.18595,60.069645"
         style="opacity:0.33000004;fill:url(#linearGradient3379);fill-opacity:1"
         id="semicolonGradient" />
    </g>
    <g
       id="dot">
      <path
         style="fill:none;fill-opacity:1;stroke:none;stroke-width:1;stroke-linecap:butt;stroke-linejoin:miter;stroke-miterlimit:4;stroke-dashoffset:0;stroke-opacity:1"
         id="dotBackground"
         d="M 124.42223,53.031488 L 124.42223,83.031488 L 136.42223,83.031488 L 136.42223,53.031488 L 124.42223,53.031488 z " />
      <path
         style="fill:#e85290"
         d="M 127.70744,71.88068 L 133.50822,71.88068 L 133.50822,78.11652 L 127.70744,78.11652 L 127.70744,71.88068"
         id="dotForeground" />
      <path
         style="opacity:0.33000004;fill:url(#linearGradient3379);fill-opacity:1"
         d="M 127.70744,71.88068 L 133.50822,71.88068 L 133.50822,78.11652 L 127.70744,78.11652 L 127.70744,71.88068"
         id="dotGradient" />
    </g>
    <g
       id="minus">
      <path
         style="fill:#2c72c7"
         d="M 177.43302,66.273259 L 187.55216,66.273259 L 187.55216,70.962223 L 177.43302,70.962223 L 177.43302,66.273259"
         id="minusForeground" />
      <path
         style="opacity:0.33000004;fill:url(#linearGradient3379);fill-opacity:1"
         d="M 177.43302,66.273259 L 187.55216,66.273259 L 187.55216,70.962223 L 177.43302,70.962223 L 177.43302,66.273259"
         id="minusGradient" />
      <path
         d="M 176.47769,53.031488 L 176.47769,83.031488 L 188.47769,83.031488 L 188.47769,53.031488 L 176.47769,53.031488 z "
         id="minusBackground"
         style="fill:none;fill-opacity:1;stroke:none;stroke-width:1;stroke-linecap:butt;stroke-linejoin:miter;stroke-miterlimit:4;stroke-dashoffset:0;stroke-opacity:1" />
    </g>
  </g>
</svg>
